# This file uses centimeters as units for non-parametric coordinates.

mtllib hip.mtl
g default
v -0.842736 0.469271 -0.556615
v -0.400190 -0.201964 -0.447903
v 0.010977 -0.479999 -0.396420
v 0.422143 -0.201964 -0.413489
v 0.864689 0.469271 -0.556615
v -0.842736 0.469271 0.554928
v -0.400190 -0.201964 0.446215
v 0.010977 -0.243445 0.389988
v 0.422143 -0.201964 0.411801
v 0.864689 0.469271 0.554928
v 0.010977 0.469271 -0.822354
v 0.010977 0.394421 0.793705
vt 0.343750 0.156250
vt 0.389515 0.266735
vt 0.500000 0.312500
vt 0.610485 0.266735
vt 0.656250 0.156250
vt 0.468750 0.312500
vt 0.500000 0.312500
vt 0.531250 0.312500
vt 0.562500 0.312500
vt 0.593750 0.312500
vt 0.468750 0.688440
vt 0.500000 0.688440
vt 0.531250 0.688440
vt 0.562500 0.688440
vt 0.593750 0.688440
vt 0.610485 0.733265
vt 0.500000 0.687500
vt 0.389515 0.733265
vt 0.343750 0.843750
vt 0.656250 0.843750
vt 0.500000 0.150000
vt 0.500000 0.837500
vn -0.834878 -0.550435 0.000000
vn -0.834878 -0.550435 0.000000
vn -0.834878 -0.550435 0.000000
vn -0.834878 -0.550435 0.000000
vn -0.564349 -0.790545 0.237798
vn -0.245195 -0.966762 0.072460
vn -0.450372 -0.874981 0.177688
vn -0.100377 -0.994949 0.000000
vn 0.550555 -0.799416 0.240466
vn 0.447167 -0.875397 0.183636
vn 0.259656 -0.962110 0.083204
vn 0.100377 -0.994949 0.000000
vn 0.834878 -0.550435 0.000000
vn 0.834878 -0.550435 0.000000
vn 0.834878 -0.550435 0.000000
vn 0.834878 -0.550435 0.000000
vn -0.280471 -0.330847 -0.901042
vn -0.280471 -0.330847 -0.901042
vn -0.280471 -0.330847 -0.901042
vn -0.160478 -0.404070 -0.900541
vn -0.160478 -0.404070 -0.900541
vn -0.160478 -0.404070 -0.900541
vn 0.232406 -0.398166 -0.887385
vn 0.232406 -0.398166 -0.887385
vn 0.232406 -0.398166 -0.887385
vn 0.275995 -0.371025 -0.886661
vn 0.275995 -0.371025 -0.886661
vn 0.275995 -0.371025 -0.886661
vn -0.280974 -0.331135 0.900779
vn -0.280974 -0.331135 0.900779
vn -0.280974 -0.331135 0.900779
vn 0.061480 -0.533789 0.843380
vn 0.061480 -0.533789 0.843380
vn 0.061480 -0.533789 0.843380
vn 0.009126 -0.534779 0.844943
vn 0.009126 -0.534779 0.844943
vn 0.009126 -0.534779 0.844943
vn 0.280095 -0.373254 0.884436
vn 0.280095 -0.373254 0.884436
vn 0.280095 -0.373254 0.884436
s 1
g Hips Hip
usemtl lambert3SG
f 1/6/1 2/7/2 6/11/3
f 6/11/3 2/7/2 7/12/4
s 2
f 3/8/5 8/13/6 2/7/7
f 2/7/7 8/13/6 7/12/8
s 3
f 3/8/9 4/9/10 8/13/11
f 8/13/11 4/9/10 9/14/12
s 4
f 4/9/13 5/10/14 9/14/15
f 9/14/15 5/10/14 10/15/16
s off
f 2/2/17 1/1/18 11/21/19
f 3/3/20 2/2/21 11/21/22
f 4/4/23 3/3/24 11/21/25
f 5/5/26 4/4/27 11/21/28
f 6/19/29 7/18/30 12/22/31
f 7/18/32 8/17/33 12/22/34
f 8/17/35 9/16/36 12/22/37
f 9/16/38 10/20/39 12/22/40
