# This file uses centimeters as units for non-parametric coordinates.

mtllib Shoulder_R.mtl
g default
v -0.106903 0.250974 -0.256324
v 0.013551 -0.016122 -0.369655
v 0.134004 -0.283218 -0.256324
v 0.183898 -0.393853 0.017281
v 0.134004 -0.283218 0.290886
v 0.013551 -0.016122 0.404217
v -0.106903 0.250974 0.290886
v -0.156796 0.361608 0.017281
v -0.949370 -0.198142 -0.256324
v -0.828916 -0.465237 -0.369655
v -0.708463 -0.732333 -0.256324
v -0.658569 -0.842968 0.017281
v -0.708463 -0.732333 0.290886
v -0.828916 -0.465237 0.328222
v -0.949370 -0.198142 0.290886
v -0.999264 -0.087507 0.017281
v 0.013551 -0.016122 0.017281
v -0.828916 -0.465237 0.017281
vt 0.610485 0.045765
vt 0.500000 0.000000
vt 0.389515 0.045765
vt 0.343750 0.156250
vt 0.389515 0.266735
vt 0.500000 0.312500
vt 0.610485 0.266735
vt 0.656250 0.156250
vt 0.375000 0.312500
vt 0.406250 0.312500
vt 0.437500 0.312500
vt 0.468750 0.312500
vt 0.500000 0.312500
vt 0.531250 0.312500
vt 0.562500 0.312500
vt 0.593750 0.312500
vt 0.625000 0.312500
vt 0.375000 0.688440
vt 0.406250 0.688440
vt 0.437500 0.688440
vt 0.468750 0.688440
vt 0.500000 0.688440
vt 0.531250 0.688440
vt 0.562500 0.688440
vt 0.593750 0.688440
vt 0.625000 0.688440
vt 0.610485 0.733265
vt 0.500000 0.687500
vt 0.389515 0.733265
vt 0.343750 0.843750
vt 0.389515 0.954235
vt 0.500000 1.000000
vt 0.610485 0.954235
vt 0.656250 0.843750
vt 0.500000 0.150000
vt 0.500000 0.837500
vn -0.170028 0.318945 -0.932397
vn -0.170028 0.318945 -0.932397
vn -0.170028 0.318945 -0.932397
vn -0.170028 0.318945 -0.932397
vn 0.170028 -0.318945 -0.932397
vn 0.170028 -0.318945 -0.932397
vn 0.170028 -0.318945 -0.932397
vn 0.170028 -0.318945 -0.932397
vn 0.430172 -0.806933 -0.404735
vn 0.430172 -0.806933 -0.404735
vn 0.430172 -0.806933 -0.404735
vn 0.430172 -0.806933 -0.404735
vn 0.430172 -0.806933 0.404735
vn 0.430172 -0.806933 0.404735
vn 0.430172 -0.806933 0.404735
vn 0.430172 -0.806933 0.404735
vn 0.102121 -0.349178 0.931475
vn 0.070289 -0.170235 0.982893
vn 0.093831 -0.301781 0.948749
vn 0.059591 -0.111783 0.991944
vn -0.236761 0.287065 0.928191
vn -0.201439 0.252408 0.946421
vn -0.103236 0.155288 0.982460
vn -0.059591 0.111783 0.991944
vn -0.430172 0.806933 0.404735
vn -0.430172 0.806933 0.404735
vn -0.430172 0.806933 0.404735
vn -0.430172 0.806933 0.404735
vn -0.430172 0.806933 -0.404735
vn -0.430172 0.806933 -0.404735
vn -0.430172 0.806933 -0.404735
vn -0.430172 0.806933 -0.404735
vn 0.911588 0.411104 0.000000
vn 0.911588 0.411104 0.000000
vn 0.911588 0.411104 0.000000
vn 0.911588 0.411104 0.000000
vn 0.911588 0.411104 0.000000
vn 0.911588 0.411104 0.000000
vn 0.911588 0.411104 0.000000
vn 0.911588 0.411104 0.000000
vn 0.911588 0.411104 0.000000
vn 0.911588 0.411104 0.000000
vn 0.911588 0.411104 0.000000
vn 0.911588 0.411104 0.000000
vn 0.911588 0.411104 0.000000
vn 0.911588 0.411104 0.000000
vn 0.911588 0.411104 0.000000
vn 0.911588 0.411104 0.000000
vn 0.911588 0.411104 0.000000
vn 0.911588 0.411104 0.000000
vn 0.911588 0.411104 0.000000
vn 0.911588 0.411104 0.000000
vn 0.911588 0.411104 0.000000
vn 0.911588 0.411104 0.000000
vn 0.911588 0.411104 0.000000
vn 0.911588 0.411104 0.000000
vn -0.911588 -0.411104 0.000000
vn -0.911588 -0.411104 0.000000
vn -0.911588 -0.411104 0.000000
vn -0.911588 -0.411104 0.000000
vn -0.911588 -0.411104 0.000000
vn -0.911588 -0.411104 0.000000
vn -0.911588 -0.411104 0.000000
vn -0.911588 -0.411104 0.000000
vn -0.911588 -0.411104 0.000000
vn -0.911588 -0.411104 0.000000
vn -0.911588 -0.411104 0.000000
vn -0.911588 -0.411104 0.000000
vn -0.911588 -0.411104 0.000000
vn -0.911588 -0.411104 0.000000
vn -0.911588 -0.411104 0.000000
vn -0.911588 -0.411104 0.000000
vn -0.911588 -0.411104 0.000000
vn -0.911588 -0.411104 0.000000
vn -0.911588 -0.411104 0.000000
vn -0.911588 -0.411104 0.000000
vn -0.911588 -0.411104 0.000000
vn -0.911588 -0.411104 0.000000
vn -0.911588 -0.411104 0.000000
vn -0.911588 -0.411104 0.000000
s 1
g pCylinder6 Shoulder_R
usemtl lambert15SG
f 1/9/1 2/10/2 9/18/3
f 9/18/3 2/10/2 10/19/4
s 2
f 2/10/5 3/11/6 10/19/7
f 10/19/7 3/11/6 11/20/8
s 3
f 3/11/9 4/12/10 11/20/11
f 11/20/11 4/12/10 12/21/12
s 4
f 4/12/13 5/13/14 12/21/15
f 12/21/15 5/13/14 13/22/16
s 5
f 6/14/17 14/23/18 5/13/19
f 5/13/19 14/23/18 13/22/20
s 6
f 6/14/21 7/15/22 14/23/23
f 14/23/23 7/15/22 15/24/24
s 7
f 7/15/25 8/16/26 15/24/27
f 15/24/27 8/16/26 16/25/28
s 8
f 8/16/29 1/17/30 16/25/31
f 16/25/31 1/17/30 9/26/32
s off
f 2/2/33 1/1/34 17/35/35
f 3/3/36 2/2/37 17/35/38
f 4/4/39 3/3/40 17/35/41
f 5/5/42 4/4/43 17/35/44
f 6/6/45 5/5/46 17/35/47
f 7/7/48 6/6/49 17/35/50
f 8/8/51 7/7/52 17/35/53
f 1/1/54 8/8/55 17/35/56
f 9/33/57 10/32/58 18/36/59
f 10/32/60 11/31/61 18/36/62
f 11/31/63 12/30/64 18/36/65
f 12/30/66 13/29/67 18/36/68
f 13/29/69 14/28/70 18/36/71
f 14/28/72 15/27/73 18/36/74
f 15/27/75 16/34/76 18/36/77
f 16/34/78 9/33/79 18/36/80
g default
v -0.298727 0.562206 -0.995427
v -0.562084 0.662300 -0.881883
v -1.140545 -0.885213 -0.881883
v -0.877188 -0.985307 -0.995427
v -1.435887 -0.772963 -0.058789
v -1.356750 -0.803040 -0.534003
v -0.778289 0.744473 -0.534003
v -0.857426 0.774550 -0.058789
v -0.877188 -0.985307 -1.101030
v -0.298727 0.562206 -1.101030
v -0.594900 0.674772 -0.973338
v -0.835128 0.766076 -0.586804
v -0.835128 0.766076 0.469226
v -0.923057 0.799495 -0.058789
v -1.501518 -0.748018 -0.058789
v -1.413589 -0.781437 0.469226
v -1.356750 -0.803040 0.416425
v -0.778289 0.744473 0.416425
v -1.173361 -0.872741 0.855760
v -1.140545 -0.885213 0.764305
v -0.594900 0.674772 0.855760
v -0.562084 0.662300 0.764305
v -0.877188 -0.985307 0.983452
v -0.877188 -0.985307 0.877849
v -0.298727 0.562206 0.877849
v -0.298727 0.562206 0.983452
v -1.413589 -0.781437 -0.586804
v -1.173361 -0.872741 -0.973338
vt 0.259025 0.750000
vt 0.333333 0.750000
vt 0.333333 1.000000
vt 0.259025 1.000000
vt 0.500000 1.000000
vt 0.416667 1.000000
vt 0.416667 0.750000
vt 0.500000 0.750000
vt 0.161769 0.087145
vt 0.161769 0.224865
vt 0.170709 0.224865
vt 0.170709 0.087145
vt 0.333333 0.500000
vt 0.416667 0.500000
vt 0.583333 0.500000
vt 0.500000 0.500000
vt 0.500000 0.250000
vt 0.583333 0.250000
vt 0.258122 0.500000
vt 0.583333 1.000000
vt 0.583333 0.750000
vt 0.666667 0.250000
vt 0.583333 0.000000
vt 0.666667 0.000000
vt 0.666667 0.500000
vt 0.666667 1.000000
vt 0.666667 0.750000
vt 0.741878 0.250000
vt 0.740975 0.000000
vt 0.740975 1.000000
vt 0.740975 0.750000
vt 0.741878 0.500000
vt 0.329291 0.224865
vt 0.338231 0.224865
vt 0.338231 0.087145
vt 0.329291 0.087145
vt 0.500000 0.000000
vt 0.416667 0.250000
vt 0.258122 0.250000
vt 0.333333 0.250000
vt 0.416667 0.000000
vt 0.259025 0.000000
vt 0.333333 0.000000
vn 0.350140 -0.130883 0.927508
vn 0.350140 -0.130883 0.927508
vn 0.350140 -0.130883 0.927508
vn 0.350140 -0.130883 0.927508
vn 0.922179 -0.344711 0.175386
vn 0.922179 -0.344711 0.175386
vn 0.922179 -0.344711 0.175386
vn 0.922179 -0.344711 0.175386
vn 0.936698 -0.350138 0.000000
vn 0.936698 -0.350138 0.000000
vn 0.936698 -0.350138 0.000000
vn 0.936698 -0.350138 0.000000
vn 0.355274 0.934762 0.000000
vn 0.355274 0.934762 0.000000
vn 0.355274 0.934762 0.000000
vn 0.355274 0.934762 0.000000
vn -0.922179 0.344711 0.175387
vn -0.922179 0.344711 0.175387
vn -0.922179 0.344711 0.175387
vn -0.922179 0.344711 0.175387
vn 0.355274 0.934762 0.000000
vn 0.355274 0.934762 0.000000
vn 0.355274 0.934762 0.000000
vn 0.355274 0.934762 0.000000
vn 0.355274 0.934762 0.000001
vn 0.355274 0.934762 -0.000001
vn 0.355274 0.934762 0.000001
vn 0.355274 0.934762 -0.000001
vn 0.922179 -0.344711 -0.175387
vn 0.922179 -0.344711 -0.175387
vn 0.922179 -0.344711 -0.175387
vn 0.922179 -0.344711 -0.175387
vn -0.355274 -0.934762 0.000001
vn -0.355274 -0.934762 0.000000
vn -0.355274 -0.934762 0.000001
vn -0.355274 -0.934762 0.000000
vn 0.355274 0.934762 0.000000
vn 0.355274 0.934762 0.000000
vn 0.355274 0.934762 0.000000
vn 0.355274 0.934762 0.000000
vn -0.780031 0.291576 0.553656
vn -0.780031 0.291576 0.553656
vn -0.780031 0.291576 0.553656
vn -0.780031 0.291576 0.553656
vn 0.780031 -0.291576 -0.553656
vn 0.780031 -0.291576 -0.553656
vn 0.780031 -0.291576 -0.553656
vn 0.780031 -0.291576 -0.553656
vn -0.355274 -0.934762 0.000000
vn -0.355274 -0.934762 0.000000
vn -0.355274 -0.934762 0.000000
vn -0.355274 -0.934762 0.000000
vn 0.355274 0.934762 -0.000002
vn 0.355274 0.934762 -0.000000
vn 0.355274 0.934762 -0.000001
vn 0.355274 0.934762 0.000000
vn 0.350140 -0.130882 -0.927508
vn 0.350140 -0.130882 -0.927508
vn 0.350140 -0.130882 -0.927508
vn 0.350140 -0.130882 -0.927508
vn -0.350140 0.130883 0.927508
vn -0.350140 0.130883 0.927508
vn -0.350140 0.130882 0.927508
vn -0.350140 0.130882 0.927508
vn 0.936698 -0.350138 0.000000
vn 0.936698 -0.350138 0.000000
vn 0.936698 -0.350138 0.000000
vn 0.936698 -0.350138 0.000000
vn 0.355274 0.934762 0.000000
vn 0.355274 0.934762 0.000000
vn 0.355274 0.934762 0.000000
vn 0.355274 0.934762 0.000000
vn -0.355274 -0.934762 0.000000
vn -0.355274 -0.934762 0.000000
vn -0.355274 -0.934762 0.000000
vn -0.355274 -0.934762 0.000000
vn -0.922179 0.344711 -0.175387
vn -0.922179 0.344711 -0.175387
vn -0.922179 0.344711 -0.175387
vn -0.922179 0.344711 -0.175387
vn -0.350140 0.130883 -0.927508
vn -0.350140 0.130882 -0.927508
vn -0.350140 0.130882 -0.927508
vn -0.350140 0.130882 -0.927508
vn 0.780031 -0.291576 0.553656
vn 0.780031 -0.291576 0.553656
vn 0.780031 -0.291576 0.553656
vn 0.780031 -0.291576 0.553656
vn -0.780031 0.291576 -0.553656
vn -0.780031 0.291576 -0.553656
vn -0.780031 0.291576 -0.553656
vn -0.780031 0.291576 -0.553656
vn -0.355274 -0.934762 0.000000
vn -0.355274 -0.934762 0.000000
vn -0.355274 -0.934762 0.000000
vn -0.355274 -0.934762 0.000001
vn -0.355274 -0.934762 0.000000
vn -0.355274 -0.934762 0.000000
vn -0.355274 -0.934762 0.000000
vn -0.355274 -0.934762 0.000000
vn -0.355274 -0.934762 -0.000001
vn -0.355274 -0.934762 0.000001
vn -0.355274 -0.934762 -0.000001
vn -0.355274 -0.934762 0.000001
s 1
g Shoulder_R pPipe28
usemtl lambert15SG
f 19/37/81 20/38/82 22/40/83
f 22/40/83 20/38/82 21/39/84
s 2
f 23/41/85 24/42/86 26/44/87
f 26/44/87 24/42/86 25/43/88
s 3
f 27/45/89 28/46/90 22/48/91
f 22/48/91 28/46/90 19/47/92
s 4
f 25/43/93 20/38/94 30/50/95
f 30/50/95 20/38/94 29/49/96
s 5
f 31/51/97 32/52/98 34/54/99
f 34/54/99 32/52/98 33/53/100
s 6
f 28/55/101 29/49/102 19/37/103
f 19/37/103 29/49/102 20/38/104
s 7
f 26/44/105 25/43/106 32/52/107
f 32/52/107 25/43/106 30/50/108
s 8
f 35/56/109 23/41/110 36/57/111
f 36/57/111 23/41/110 26/44/112
s 9
f 37/58/113 34/54/114 38/60/115
f 38/60/115 34/54/114 35/59/116
s 10
f 36/57/117 26/44/118 31/51/119
f 31/51/119 26/44/118 32/52/120
s 11
f 39/61/121 31/51/122 37/58/123
f 37/58/123 31/51/122 34/54/124
s 12
f 38/62/125 35/56/126 40/63/127
f 40/63/127 35/56/126 36/57/128
s 13
f 41/64/129 37/58/130 42/65/131
f 42/65/131 37/58/130 38/60/132
s 14
f 40/63/133 36/57/134 39/61/135
f 39/61/135 36/57/134 31/51/136
s 15
f 42/66/137 38/62/138 43/67/139
f 43/67/139 38/62/138 40/63/140
s 16
f 44/68/141 39/61/142 41/64/143
f 41/64/143 39/61/142 37/58/144
s 17
f 43/69/145 44/70/146 42/72/147
f 42/72/147 44/70/146 41/71/148
s 18
f 43/67/149 40/63/150 44/68/151
f 44/68/151 40/63/150 39/61/152
s 19
f 34/54/153 33/53/154 35/59/155
f 35/59/155 33/53/154 23/73/156
s 20
f 32/52/157 30/50/158 33/53/159
f 33/53/159 30/50/158 45/74/160
s 21
f 27/75/161 46/76/162 28/55/163
f 28/55/163 46/76/162 29/49/164
s 22
f 24/42/165 21/39/166 25/43/167
f 25/43/167 21/39/166 20/38/168
s 23
f 30/50/169 29/49/170 45/74/171
f 45/74/171 29/49/170 46/76/172
s 24
f 33/53/173 45/74/174 23/73/175
f 23/73/175 45/74/174 24/77/176
s 25
f 22/78/177 21/79/178 27/75/179
f 27/75/179 21/79/178 46/76/180
s 26
f 45/74/181 46/76/182 24/77/183
f 24/77/183 46/76/182 21/79/184
g default
v -0.582007 -0.062932 -0.774317
v -0.790686 0.016380 -0.687578
v -1.211707 -1.109946 -0.687578
v -1.003029 -1.189259 -0.774317
v -1.445730 -1.021002 -0.058789
v -1.383024 -1.044834 -0.421820
v -0.962002 0.081492 -0.421820
v -1.024708 0.105325 -0.058789
v -1.003029 -1.189259 -0.854991
v -0.582007 -0.062932 -0.854991
v -0.816689 0.026263 -0.757443
v -1.007040 0.098610 -0.462157
v -1.007040 0.098610 0.344579
v -1.076714 0.125090 -0.058789
v -1.497735 -1.001236 -0.058789
v -1.428061 -1.027717 0.344579
v -1.383024 -1.044834 0.304242
v -0.962002 0.081492 0.304242
v -1.237710 -1.100064 0.639865
v -1.211707 -1.109946 0.569999
v -0.816689 0.026263 0.639865
v -0.790686 0.016380 0.569999
v -1.003029 -1.189259 0.737412
v -1.003029 -1.189259 0.656739
v -0.582007 -0.062932 0.656739
v -0.582007 -0.062932 0.737412
v -1.428061 -1.027717 -0.462157
v -1.237710 -1.100064 -0.757443
vt 0.259025 0.750000
vt 0.333333 0.750000
vt 0.333333 1.000000
vt 0.259025 1.000000
vt 0.500000 1.000000
vt 0.416667 1.000000
vt 0.416667 0.750000
vt 0.500000 0.750000
vt 0.161769 0.087145
vt 0.161769 0.224865
vt 0.170709 0.224865
vt 0.170709 0.087145
vt 0.333333 0.500000
vt 0.416667 0.500000
vt 0.583333 0.500000
vt 0.500000 0.500000
vt 0.500000 0.250000
vt 0.583333 0.250000
vt 0.258122 0.500000
vt 0.583333 1.000000
vt 0.583333 0.750000
vt 0.666667 0.250000
vt 0.583333 0.000000
vt 0.666667 0.000000
vt 0.666667 0.500000
vt 0.666667 1.000000
vt 0.666667 0.750000
vt 0.741878 0.250000
vt 0.740975 0.000000
vt 0.740975 1.000000
vt 0.740975 0.750000
vt 0.741878 0.500000
vt 0.329291 0.224865
vt 0.338231 0.224865
vt 0.338231 0.087145
vt 0.329291 0.087145
vt 0.500000 0.000000
vt 0.416667 0.250000
vt 0.258122 0.250000
vt 0.333333 0.250000
vt 0.416667 0.000000
vt 0.259025 0.000000
vt 0.333333 0.000000
vn 0.339246 -0.126810 0.932111
vn 0.339246 -0.126810 0.932111
vn 0.339246 -0.126810 0.932111
vn 0.339245 -0.126810 0.932111
vn 0.921105 -0.344309 0.181705
vn 0.921105 -0.344309 0.181705
vn 0.921105 -0.344309 0.181705
vn 0.921105 -0.344309 0.181705
vn 0.936698 -0.350138 0.000000
vn 0.936698 -0.350138 0.000000
vn 0.936698 -0.350138 0.000000
vn 0.936698 -0.350138 0.000000
vn 0.355274 0.934762 0.000000
vn 0.355274 0.934762 0.000000
vn 0.355274 0.934762 0.000000
vn 0.355274 0.934762 0.000000
vn -0.921105 0.344309 0.181705
vn -0.921105 0.344309 0.181705
vn -0.921105 0.344309 0.181705
vn -0.921105 0.344309 0.181705
vn 0.355274 0.934762 0.000000
vn 0.355274 0.934762 0.000000
vn 0.355274 0.934762 0.000000
vn 0.355274 0.934762 0.000000
vn 0.355274 0.934762 0.000001
vn 0.355274 0.934762 -0.000001
vn 0.355274 0.934762 0.000001
vn 0.355274 0.934762 -0.000001
vn 0.921105 -0.344309 -0.181705
vn 0.921105 -0.344309 -0.181705
vn 0.921105 -0.344309 -0.181705
vn 0.921105 -0.344309 -0.181705
vn -0.355274 -0.934762 0.000001
vn -0.355274 -0.934762 0.000000
vn -0.355274 -0.934762 0.000001
vn -0.355274 -0.934762 0.000000
vn 0.355274 0.934762 0.000000
vn 0.355274 0.934762 0.000000
vn 0.355274 0.934762 0.000000
vn 0.355274 0.934762 0.000000
vn -0.771117 0.288244 0.567710
vn -0.771117 0.288244 0.567710
vn -0.771117 0.288244 0.567710
vn -0.771117 0.288244 0.567710
vn 0.771117 -0.288244 -0.567710
vn 0.771117 -0.288244 -0.567710
vn 0.771117 -0.288244 -0.567710
vn 0.771117 -0.288244 -0.567710
vn -0.355274 -0.934762 0.000000
vn -0.355274 -0.934762 0.000000
vn -0.355274 -0.934762 0.000000
vn -0.355274 -0.934762 0.000000
vn 0.355274 0.934762 -0.000001
vn 0.355274 0.934762 -0.000000
vn 0.355274 0.934762 -0.000001
vn 0.355274 0.934762 0.000000
vn 0.339245 -0.126810 -0.932112
vn 0.339245 -0.126810 -0.932112
vn 0.339245 -0.126810 -0.932112
vn 0.339245 -0.126810 -0.932112
vn -0.339245 0.126810 0.932111
vn -0.339245 0.126810 0.932111
vn -0.339245 0.126810 0.932111
vn -0.339245 0.126810 0.932112
vn 0.936698 -0.350138 0.000000
vn 0.936698 -0.350138 0.000000
vn 0.936698 -0.350138 0.000000
vn 0.936698 -0.350138 0.000000
vn 0.355274 0.934762 0.000000
vn 0.355274 0.934762 0.000000
vn 0.355274 0.934762 0.000000
vn 0.355274 0.934762 0.000000
vn -0.355274 -0.934762 0.000000
vn -0.355274 -0.934762 0.000000
vn -0.355274 -0.934762 0.000000
vn -0.355274 -0.934762 0.000000
vn -0.921105 0.344309 -0.181705
vn -0.921105 0.344309 -0.181705
vn -0.921105 0.344309 -0.181705
vn -0.921105 0.344309 -0.181705
vn -0.339245 0.126810 -0.932111
vn -0.339245 0.126810 -0.932111
vn -0.339245 0.126810 -0.932112
vn -0.339245 0.126810 -0.932112
vn 0.771117 -0.288244 0.567710
vn 0.771117 -0.288244 0.567710
vn 0.771117 -0.288244 0.567710
vn 0.771117 -0.288244 0.567710
vn -0.771117 0.288244 -0.567710
vn -0.771117 0.288244 -0.567710
vn -0.771117 0.288244 -0.567710
vn -0.771117 0.288244 -0.567710
vn -0.355274 -0.934762 0.000000
vn -0.355274 -0.934762 0.000000
vn -0.355274 -0.934762 0.000000
vn -0.355274 -0.934762 0.000000
vn -0.355274 -0.934762 0.000000
vn -0.355274 -0.934762 0.000000
vn -0.355274 -0.934762 0.000000
vn -0.355274 -0.934762 0.000000
vn -0.355274 -0.934762 -0.000001
vn -0.355274 -0.934762 0.000001
vn -0.355274 -0.934762 -0.000001
vn -0.355274 -0.934762 0.000001
s 1
g Shoulder_R pPipe38
usemtl lambert15SG
f 47/80/185 48/81/186 50/83/187
f 50/83/187 48/81/186 49/82/188
s 2
f 51/84/189 52/85/190 54/87/191
f 54/87/191 52/85/190 53/86/192
s 3
f 55/88/193 56/89/194 50/91/195
f 50/91/195 56/89/194 47/90/196
s 4
f 53/86/197 48/81/198 58/93/199
f 58/93/199 48/81/198 57/92/200
s 5
f 59/94/201 60/95/202 62/97/203
f 62/97/203 60/95/202 61/96/204
s 6
f 56/98/205 57/92/206 47/80/207
f 47/80/207 57/92/206 48/81/208
s 7
f 54/87/209 53/86/210 60/95/211
f 60/95/211 53/86/210 58/93/212
s 8
f 63/99/213 51/84/214 64/100/215
f 64/100/215 51/84/214 54/87/216
s 9
f 65/101/217 62/97/218 66/103/219
f 66/103/219 62/97/218 63/102/220
s 10
f 64/100/221 54/87/222 59/94/223
f 59/94/223 54/87/222 60/95/224
s 11
f 67/104/225 59/94/226 65/101/227
f 65/101/227 59/94/226 62/97/228
s 12
f 66/105/229 63/99/230 68/106/231
f 68/106/231 63/99/230 64/100/232
s 13
f 69/107/233 65/101/234 70/108/235
f 70/108/235 65/101/234 66/103/236
s 14
f 68/106/237 64/100/238 67/104/239
f 67/104/239 64/100/238 59/94/240
s 15
f 70/109/241 66/105/242 71/110/243
f 71/110/243 66/105/242 68/106/244
s 16
f 72/111/245 67/104/246 69/107/247
f 69/107/247 67/104/246 65/101/248
s 17
f 71/112/249 72/113/250 70/115/251
f 70/115/251 72/113/250 69/114/252
s 18
f 71/110/253 68/106/254 72/111/255
f 72/111/255 68/106/254 67/104/256
s 19
f 62/97/257 61/96/258 63/102/259
f 63/102/259 61/96/258 51/116/260
s 20
f 60/95/261 58/93/262 61/96/263
f 61/96/263 58/93/262 73/117/264
s 21
f 55/118/265 74/119/266 56/98/267
f 56/98/267 74/119/266 57/92/268
s 22
f 52/85/269 49/82/270 53/86/271
f 53/86/271 49/82/270 48/81/272
s 23
f 58/93/273 57/92/274 73/117/275
f 73/117/275 57/92/274 74/119/276
s 24
f 61/96/277 73/117/278 51/116/279
f 51/116/279 73/117/278 52/120/280
s 25
f 50/121/281 49/122/282 55/118/283
f 55/118/283 49/122/282 74/119/284
s 26
f 73/117/285 74/119/286 52/120/287
f 52/120/287 74/119/286 49/122/288
