# This file uses centimeters as units for non-parametric coordinates.

mtllib Shoulder_L.mtl
g default
v 0.676871 -0.367606 0.518113
v 0.887579 -0.287522 0.460416
v 1.141243 -0.966130 0.460416
v 0.930535 -1.046214 0.518113
v 1.377540 -0.876321 0.042158
v 1.314225 -0.900385 0.283639
v 1.060561 -0.221777 0.283639
v 1.123876 -0.197713 0.042158
v 0.930535 -1.046214 0.571776
v 0.676871 -0.367606 0.571776
v 0.913834 -0.277543 0.506889
v 1.106036 -0.204493 0.310470
v 1.106036 -0.204493 -0.226155
v 1.176387 -0.177755 0.042158
v 1.430051 -0.856363 0.042158
v 1.359700 -0.883101 -0.226155
v 1.314225 -0.900385 -0.199324
v 1.060561 -0.221777 -0.199324
v 1.167498 -0.956151 -0.422574
v 1.141243 -0.966130 -0.376101
v 0.913834 -0.277543 -0.422574
v 0.887579 -0.287522 -0.376101
v 0.930535 -1.046214 -0.487461
v 0.930535 -1.046214 -0.433798
v 0.676871 -0.367606 -0.433798
v 0.676871 -0.367606 -0.487461
v 1.359700 -0.883101 0.310470
v 1.167498 -0.956151 0.506889
vt 0.259025 0.750000
vt 0.333333 0.750000
vt 0.333333 1.000000
vt 0.259025 1.000000
vt 0.500000 1.000000
vt 0.416667 1.000000
vt 0.416667 0.750000
vt 0.500000 0.750000
vt 0.161769 0.087145
vt 0.161769 0.224865
vt 0.170709 0.224865
vt 0.170709 0.087145
vt 0.333333 0.500000
vt 0.416667 0.500000
vt 0.583333 0.500000
vt 0.500000 0.500000
vt 0.500000 0.250000
vt 0.583333 0.250000
vt 0.258122 0.500000
vt 0.583333 1.000000
vt 0.583333 0.750000
vt 0.666667 0.250000
vt 0.583333 0.000000
vt 0.666667 0.000000
vt 0.666667 0.500000
vt 0.666667 1.000000
vt 0.666667 0.750000
vt 0.741878 0.250000
vt 0.740975 0.000000
vt 0.740975 1.000000
vt 0.740975 0.750000
vt 0.741878 0.500000
vt 0.329291 0.224865
vt 0.338231 0.224865
vt 0.338231 0.087145
vt 0.329291 0.087145
vt 0.500000 0.000000
vt 0.416667 0.250000
vt 0.258122 0.250000
vt 0.333333 0.250000
vt 0.416667 0.000000
vt 0.259025 0.000000
vt 0.333333 0.000000
vn -0.232276 -0.086825 -0.968767
vn -0.232276 -0.086825 -0.968767
vn -0.232276 -0.086825 -0.968767
vn -0.232276 -0.086825 -0.968767
vn -0.901891 -0.337127 -0.270069
vn -0.901891 -0.337127 -0.270069
vn -0.901891 -0.337127 -0.270069
vn -0.901891 -0.337127 -0.270069
vn -0.936698 -0.350138 -0.000000
vn -0.936698 -0.350138 -0.000000
vn -0.936698 -0.350138 -0.000000
vn -0.936698 -0.350138 -0.000000
vn -0.355274 0.934762 -0.000000
vn -0.355274 0.934762 -0.000000
vn -0.355274 0.934762 -0.000000
vn -0.355274 0.934762 -0.000000
vn 0.901891 0.337127 -0.270069
vn 0.901891 0.337127 -0.270069
vn 0.901891 0.337127 -0.270069
vn 0.901891 0.337127 -0.270069
vn -0.355274 0.934762 -0.000000
vn -0.355274 0.934762 -0.000000
vn -0.355274 0.934762 -0.000000
vn -0.355274 0.934762 -0.000000
vn -0.355274 0.934762 -0.000001
vn -0.355274 0.934762 0.000001
vn -0.355274 0.934762 -0.000001
vn -0.355274 0.934762 0.000001
vn -0.901891 -0.337127 0.270069
vn -0.901891 -0.337127 0.270069
vn -0.901891 -0.337127 0.270069
vn -0.901891 -0.337127 0.270069
vn 0.355274 -0.934762 -0.000001
vn 0.355274 -0.934762 -0.000000
vn 0.355274 -0.934762 -0.000001
vn 0.355274 -0.934762 0.000000
vn -0.355274 0.934762 -0.000000
vn -0.355274 0.934762 -0.000000
vn -0.355274 0.934762 -0.000000
vn -0.355274 0.934762 -0.000000
vn 0.647029 0.241860 -0.723089
vn 0.647029 0.241860 -0.723089
vn 0.647029 0.241860 -0.723089
vn 0.647029 0.241860 -0.723089
vn -0.647029 -0.241860 0.723089
vn -0.647029 -0.241860 0.723089
vn -0.647029 -0.241860 0.723089
vn -0.647029 -0.241860 0.723089
vn 0.355274 -0.934762 0.000000
vn 0.355274 -0.934762 0.000000
vn 0.355274 -0.934762 0.000000
vn 0.355274 -0.934762 0.000000
vn -0.355274 0.934762 0.000001
vn -0.355274 0.934762 0.000000
vn -0.355274 0.934762 0.000001
vn -0.355274 0.934762 -0.000000
vn -0.232276 -0.086825 0.968767
vn -0.232276 -0.086825 0.968767
vn -0.232276 -0.086825 0.968767
vn -0.232276 -0.086825 0.968767
vn 0.232276 0.086825 -0.968767
vn 0.232276 0.086825 -0.968767
vn 0.232276 0.086825 -0.968767
vn 0.232276 0.086825 -0.968767
vn -0.936698 -0.350138 -0.000000
vn -0.936698 -0.350138 -0.000000
vn -0.936698 -0.350138 -0.000000
vn -0.936698 -0.350138 -0.000000
vn -0.355274 0.934762 -0.000000
vn -0.355274 0.934762 -0.000000
vn -0.355274 0.934762 -0.000000
vn -0.355274 0.934762 -0.000000
vn 0.355274 -0.934762 -0.000000
vn 0.355274 -0.934762 -0.000000
vn 0.355274 -0.934762 -0.000000
vn 0.355274 -0.934762 0.000000
vn 0.901891 0.337127 0.270069
vn 0.901891 0.337127 0.270069
vn 0.901891 0.337127 0.270069
vn 0.901891 0.337127 0.270069
vn 0.232276 0.086825 0.968767
vn 0.232276 0.086825 0.968767
vn 0.232276 0.086825 0.968767
vn 0.232276 0.086825 0.968767
vn -0.647029 -0.241860 -0.723089
vn -0.647029 -0.241860 -0.723089
vn -0.647029 -0.241860 -0.723089
vn -0.647029 -0.241860 -0.723089
vn 0.647029 0.241860 0.723089
vn 0.647029 0.241860 0.723089
vn 0.647029 0.241860 0.723089
vn 0.647029 0.241860 0.723089
vn 0.355274 -0.934762 0.000000
vn 0.355274 -0.934762 -0.000000
vn 0.355274 -0.934762 -0.000000
vn 0.355274 -0.934762 -0.000000
vn 0.355274 -0.934762 0.000000
vn 0.355274 -0.934762 0.000000
vn 0.355274 -0.934762 0.000000
vn 0.355274 -0.934762 0.000000
vn 0.355274 -0.934762 0.000001
vn 0.355274 -0.934762 -0.000001
vn 0.355274 -0.934762 0.000001
vn 0.355274 -0.934762 -0.000001
s 1
g pPipe10 Shoulder_L
usemtl lambert15SG
f 1/1/1 2/2/2 4/4/3
f 4/4/3 2/2/2 3/3/4
s 2
f 5/5/5 6/6/6 8/8/7
f 8/8/7 6/6/6 7/7/8
s 3
f 9/9/9 10/10/10 4/12/11
f 4/12/11 10/10/10 1/11/12
s 4
f 7/7/13 2/2/14 12/14/15
f 12/14/15 2/2/14 11/13/16
s 5
f 13/15/17 14/16/18 16/18/19
f 16/18/19 14/16/18 15/17/20
s 6
f 10/19/21 11/13/22 1/1/23
f 1/1/23 11/13/22 2/2/24
s 7
f 8/8/25 7/7/26 14/16/27
f 14/16/27 7/7/26 12/14/28
s 8
f 17/20/29 5/5/30 18/21/31
f 18/21/31 5/5/30 8/8/32
s 9
f 19/22/33 16/18/34 20/24/35
f 20/24/35 16/18/34 17/23/36
s 10
f 18/21/37 8/8/38 13/15/39
f 13/15/39 8/8/38 14/16/40
s 11
f 21/25/41 13/15/42 19/22/43
f 19/22/43 13/15/42 16/18/44
s 12
f 20/26/45 17/20/46 22/27/47
f 22/27/47 17/20/46 18/21/48
s 13
f 23/28/49 19/22/50 24/29/51
f 24/29/51 19/22/50 20/24/52
s 14
f 22/27/53 18/21/54 21/25/55
f 21/25/55 18/21/54 13/15/56
s 15
f 24/30/57 20/26/58 25/31/59
f 25/31/59 20/26/58 22/27/60
s 16
f 26/32/61 21/25/62 23/28/63
f 23/28/63 21/25/62 19/22/64
s 17
f 25/33/65 26/34/66 24/36/67
f 24/36/67 26/34/66 23/35/68
s 18
f 25/31/69 22/27/70 26/32/71
f 26/32/71 22/27/70 21/25/72
s 19
f 16/18/73 15/17/74 17/23/75
f 17/23/75 15/17/74 5/37/76
s 20
f 14/16/77 12/14/78 15/17/79
f 15/17/79 12/14/78 27/38/80
s 21
f 9/39/81 28/40/82 10/19/83
f 10/19/83 28/40/82 11/13/84
s 22
f 6/6/85 3/3/86 7/7/87
f 7/7/87 3/3/86 2/2/88
s 23
f 12/14/89 11/13/90 27/38/91
f 27/38/91 11/13/90 28/40/92
s 24
f 15/17/93 27/38/94 5/37/95
f 5/37/95 27/38/94 6/41/96
s 25
f 4/42/97 3/43/98 9/39/99
f 9/39/99 3/43/98 28/40/100
s 26
f 27/38/101 28/40/102 6/41/103
f 6/41/103 28/40/102 3/43/104
g default
v -0.148722 -0.280051 -0.190990
v -0.028267 -0.012956 -0.304321
v 0.092188 0.254138 -0.190990
v 0.142083 0.364773 0.082615
v 0.092188 0.254138 0.356220
v -0.028267 -0.012956 0.469551
v -0.148722 -0.280051 0.356220
v -0.198617 -0.390686 0.082615
v 0.693742 -0.729173 -0.190990
v 0.814197 -0.462078 -0.304321
v 0.934653 -0.194983 -0.190990
v 0.984547 -0.084349 0.082615
v 0.934653 -0.194983 0.356220
v 0.814197 -0.462078 0.469551
v 0.693742 -0.729173 0.356220
v 0.643848 -0.839807 0.082615
v -0.028267 -0.012956 0.082615
v 0.814197 -0.462078 0.082615
vt 0.610485 0.045765
vt 0.500000 0.000000
vt 0.389515 0.045765
vt 0.343750 0.156250
vt 0.389515 0.266735
vt 0.500000 0.312500
vt 0.610485 0.266735
vt 0.656250 0.156250
vt 0.375000 0.312500
vt 0.406250 0.312500
vt 0.437500 0.312500
vt 0.468750 0.312500
vt 0.500000 0.312500
vt 0.531250 0.312500
vt 0.562500 0.312500
vt 0.593750 0.312500
vt 0.625000 0.312500
vt 0.375000 0.688440
vt 0.406250 0.688440
vt 0.437500 0.688440
vt 0.468750 0.688440
vt 0.500000 0.688440
vt 0.531250 0.688440
vt 0.562500 0.688440
vt 0.593750 0.688440
vt 0.625000 0.688440
vt 0.610485 0.733265
vt 0.500000 0.687500
vt 0.389515 0.733265
vt 0.343750 0.843750
vt 0.389515 0.954235
vt 0.500000 1.000000
vt 0.610485 0.954235
vt 0.656250 0.843750
vt 0.500000 0.150000
vt 0.500000 0.837500
vn -0.170031 -0.318944 -0.932397
vn -0.170031 -0.318944 -0.932397
vn -0.170031 -0.318944 -0.932397
vn -0.170031 -0.318944 -0.932397
vn 0.170031 0.318944 -0.932397
vn 0.170031 0.318944 -0.932397
vn 0.170031 0.318944 -0.932397
vn 0.170031 0.318944 -0.932397
vn 0.430178 0.806930 -0.404735
vn 0.430178 0.806930 -0.404735
vn 0.430178 0.806930 -0.404735
vn 0.430178 0.806930 -0.404735
vn 0.430178 0.806930 0.404735
vn 0.430178 0.806930 0.404735
vn 0.430178 0.806930 0.404735
vn 0.430178 0.806930 0.404735
vn 0.170031 0.318944 0.932397
vn 0.170031 0.318944 0.932397
vn 0.170031 0.318944 0.932397
vn 0.170031 0.318944 0.932397
vn -0.170031 -0.318944 0.932397
vn -0.170031 -0.318944 0.932397
vn -0.170031 -0.318944 0.932397
vn -0.170031 -0.318944 0.932397
vn -0.430178 -0.806930 0.404735
vn -0.430178 -0.806930 0.404735
vn -0.430178 -0.806930 0.404735
vn -0.430178 -0.806930 0.404735
vn -0.430178 -0.806930 -0.404735
vn -0.430178 -0.806930 -0.404735
vn -0.430178 -0.806930 -0.404735
vn -0.430178 -0.806930 -0.404735
vn -0.911586 0.411110 0.000000
vn -0.911586 0.411110 0.000000
vn -0.911586 0.411110 0.000000
vn -0.911586 0.411110 0.000000
vn -0.911586 0.411110 0.000000
vn -0.911586 0.411110 0.000000
vn -0.911586 0.411110 0.000000
vn -0.911586 0.411110 0.000000
vn -0.911586 0.411110 0.000000
vn -0.911586 0.411110 0.000000
vn -0.911586 0.411110 0.000000
vn -0.911586 0.411110 0.000000
vn -0.911586 0.411110 0.000000
vn -0.911586 0.411110 0.000000
vn -0.911586 0.411110 0.000000
vn -0.911586 0.411110 0.000000
vn -0.911586 0.411110 0.000000
vn -0.911586 0.411110 0.000000
vn -0.911586 0.411110 0.000000
vn -0.911586 0.411110 0.000000
vn -0.911586 0.411110 0.000000
vn -0.911586 0.411110 0.000000
vn -0.911586 0.411110 0.000000
vn -0.911586 0.411110 0.000000
vn 0.911586 -0.411110 0.000000
vn 0.911586 -0.411110 0.000000
vn 0.911586 -0.411110 0.000000
vn 0.911586 -0.411110 0.000000
vn 0.911586 -0.411110 0.000000
vn 0.911586 -0.411110 0.000000
vn 0.911586 -0.411110 0.000000
vn 0.911586 -0.411110 0.000000
vn 0.911586 -0.411110 0.000000
vn 0.911586 -0.411110 0.000000
vn 0.911586 -0.411110 0.000000
vn 0.911586 -0.411110 0.000000
vn 0.911586 -0.411110 0.000000
vn 0.911586 -0.411110 0.000000
vn 0.911586 -0.411110 0.000000
vn 0.911586 -0.411110 0.000000
vn 0.911586 -0.411110 0.000000
vn 0.911586 -0.411110 0.000000
vn 0.911586 -0.411110 0.000000
vn 0.911586 -0.411110 0.000000
vn 0.911586 -0.411110 0.000000
vn 0.911586 -0.411110 0.000000
vn 0.911586 -0.411110 0.000000
vn 0.911586 -0.411110 0.000000
s 1
g Shoulder_L pCylinder7
usemtl lambert15SG
f 29/52/105 30/53/106 37/61/107
f 37/61/107 30/53/106 38/62/108
s 2
f 30/53/109 31/54/110 38/62/111
f 38/62/111 31/54/110 39/63/112
s 3
f 31/54/113 32/55/114 39/63/115
f 39/63/115 32/55/114 40/64/116
s 4
f 32/55/117 33/56/118 40/64/119
f 40/64/119 33/56/118 41/65/120
s 5
f 33/56/121 34/57/122 41/65/123
f 41/65/123 34/57/122 42/66/124
s 6
f 34/57/125 35/58/126 42/66/127
f 42/66/127 35/58/126 43/67/128
s 7
f 35/58/129 36/59/130 43/67/131
f 43/67/131 36/59/130 44/68/132
s 8
f 36/59/133 29/60/134 44/68/135
f 44/68/135 29/60/134 37/69/136
s off
f 30/45/137 29/44/138 45/78/139
f 31/46/140 30/45/141 45/78/142
f 32/47/143 31/46/144 45/78/145
f 33/48/146 32/47/147 45/78/148
f 34/49/149 33/48/150 45/78/151
f 35/50/152 34/49/153 45/78/154
f 36/51/155 35/50/156 45/78/157
f 29/44/158 36/51/159 45/78/160
f 37/76/161 38/75/162 46/79/163
f 38/75/164 39/74/165 46/79/166
f 39/74/167 40/73/168 46/79/169
f 40/73/170 41/72/171 46/79/172
f 41/72/173 42/71/174 46/79/175
f 42/71/176 43/70/177 46/79/178
f 43/70/179 44/77/180 46/79/181
f 44/77/182 37/76/183 46/79/184
g default
v 0.197662 0.736915 0.755834
v 0.461019 0.837009 0.669319
v 0.980334 -0.552273 0.669319
v 0.716976 -0.652367 0.755834
v 1.275675 -0.440023 0.042158
v 1.196539 -0.470100 0.404249
v 0.677224 0.919182 0.404249
v 0.756361 0.949259 0.042158
v 0.716976 -0.652367 0.836299
v 0.197662 0.736915 0.836299
v 0.493835 0.849481 0.739004
v 0.734063 0.940785 0.444482
v 0.734063 0.940785 -0.360167
v 0.821992 0.974204 0.042158
v 1.341307 -0.415078 0.042158
v 1.253377 -0.448497 -0.360167
v 1.196539 -0.470100 -0.319934
v 0.677224 0.919182 -0.319934
v 1.013149 -0.539801 -0.654689
v 0.980333 -0.552273 -0.585004
v 0.493835 0.849481 -0.654689
v 0.461019 0.837009 -0.585004
v 0.716976 -0.652367 -0.751984
v 0.716976 -0.652367 -0.671519
v 0.197662 0.736915 -0.671519
v 0.197662 0.736915 -0.751984
v 1.253377 -0.448497 0.444482
v 1.013149 -0.539801 0.739004
vt 0.259025 0.750000
vt 0.333333 0.750000
vt 0.333333 1.000000
vt 0.259025 1.000000
vt 0.500000 1.000000
vt 0.416667 1.000000
vt 0.416667 0.750000
vt 0.500000 0.750000
vt 0.161769 0.087145
vt 0.161769 0.224865
vt 0.170709 0.224865
vt 0.170709 0.087145
vt 0.333333 0.500000
vt 0.416667 0.500000
vt 0.583333 0.500000
vt 0.500000 0.500000
vt 0.500000 0.250000
vt 0.583333 0.250000
vt 0.258122 0.500000
vt 0.583333 1.000000
vt 0.583333 0.750000
vt 0.666667 0.250000
vt 0.583333 0.000000
vt 0.666667 0.000000
vt 0.666667 0.500000
vt 0.666667 1.000000
vt 0.666667 0.750000
vt 0.741878 0.250000
vt 0.740975 0.000000
vt 0.740975 1.000000
vt 0.740975 0.750000
vt 0.741878 0.500000
vt 0.329291 0.224865
vt 0.338231 0.224865
vt 0.338231 0.087145
vt 0.329291 0.087145
vt 0.500000 0.000000
vt 0.416667 0.250000
vt 0.258122 0.250000
vt 0.333333 0.250000
vt 0.416667 0.000000
vt 0.259025 0.000000
vt 0.333333 0.000000
vn -0.274970 -0.102784 -0.955943
vn -0.274970 -0.102784 -0.955943
vn -0.274970 -0.102784 -0.955943
vn -0.274970 -0.102784 -0.955943
vn -0.912100 -0.340943 -0.227664
vn -0.912100 -0.340943 -0.227664
vn -0.912100 -0.340943 -0.227664
vn -0.912100 -0.340943 -0.227664
vn -0.936698 -0.350138 -0.000000
vn -0.936698 -0.350138 -0.000000
vn -0.936698 -0.350138 -0.000000
vn -0.936698 -0.350138 -0.000000
vn -0.355274 0.934762 -0.000000
vn -0.355274 0.934762 -0.000000
vn -0.355274 0.934762 -0.000000
vn -0.355274 0.934762 -0.000000
vn 0.912100 0.340943 -0.227664
vn 0.912100 0.340943 -0.227664
vn 0.912100 0.340943 -0.227664
vn 0.912100 0.340943 -0.227664
vn -0.355274 0.934762 -0.000000
vn -0.355274 0.934762 -0.000000
vn -0.355274 0.934762 -0.000000
vn -0.355274 0.934762 -0.000000
vn -0.355274 0.934762 -0.000001
vn -0.355274 0.934762 0.000001
vn -0.355274 0.934762 -0.000001
vn -0.355274 0.934762 0.000001
vn -0.912100 -0.340943 0.227664
vn -0.912100 -0.340943 0.227664
vn -0.912100 -0.340943 0.227664
vn -0.912100 -0.340943 0.227664
vn 0.355274 -0.934762 -0.000001
vn 0.355274 -0.934762 -0.000000
vn 0.355274 -0.934762 -0.000001
vn 0.355274 -0.934762 0.000000
vn -0.355274 0.934762 -0.000000
vn -0.355274 0.934762 -0.000000
vn -0.355274 0.934762 -0.000000
vn -0.355274 0.934762 -0.000000
vn 0.705788 0.263824 -0.657465
vn 0.705788 0.263824 -0.657465
vn 0.705788 0.263824 -0.657465
vn 0.705788 0.263824 -0.657465
vn -0.705788 -0.263824 0.657465
vn -0.705788 -0.263824 0.657465
vn -0.705788 -0.263824 0.657465
vn -0.705788 -0.263824 0.657465
vn 0.355274 -0.934762 0.000000
vn 0.355274 -0.934762 0.000000
vn 0.355274 -0.934762 0.000000
vn 0.355274 -0.934762 0.000000
vn -0.355274 0.934762 0.000002
vn -0.355274 0.934762 0.000000
vn -0.355274 0.934762 0.000002
vn -0.355274 0.934762 -0.000000
vn -0.274970 -0.102784 0.955943
vn -0.274970 -0.102784 0.955943
vn -0.274970 -0.102784 0.955943
vn -0.274970 -0.102784 0.955943
vn 0.274970 0.102784 -0.955943
vn 0.274970 0.102784 -0.955943
vn 0.274970 0.102784 -0.955943
vn 0.274970 0.102784 -0.955943
vn -0.936698 -0.350138 -0.000000
vn -0.936698 -0.350138 -0.000000
vn -0.936698 -0.350138 -0.000000
vn -0.936698 -0.350138 -0.000000
vn -0.355274 0.934762 -0.000000
vn -0.355274 0.934762 -0.000000
vn -0.355274 0.934762 -0.000000
vn -0.355274 0.934762 -0.000000
vn 0.355274 -0.934762 -0.000000
vn 0.355274 -0.934762 -0.000000
vn 0.355274 -0.934762 -0.000000
vn 0.355274 -0.934762 0.000000
vn 0.912100 0.340943 0.227664
vn 0.912100 0.340943 0.227664
vn 0.912100 0.340943 0.227664
vn 0.912100 0.340943 0.227664
vn 0.274970 0.102784 0.955943
vn 0.274970 0.102784 0.955943
vn 0.274970 0.102784 0.955943
vn 0.274970 0.102784 0.955943
vn -0.705788 -0.263824 -0.657465
vn -0.705788 -0.263824 -0.657465
vn -0.705788 -0.263824 -0.657465
vn -0.705788 -0.263824 -0.657465
vn 0.705788 0.263824 0.657465
vn 0.705788 0.263824 0.657465
vn 0.705788 0.263824 0.657465
vn 0.705788 0.263824 0.657465
vn 0.355274 -0.934762 0.000000
vn 0.355274 -0.934762 -0.000001
vn 0.355274 -0.934762 -0.000000
vn 0.355274 -0.934762 -0.000001
vn 0.355274 -0.934762 0.000000
vn 0.355274 -0.934762 0.000000
vn 0.355274 -0.934762 0.000000
vn 0.355274 -0.934762 0.000000
vn 0.355274 -0.934762 0.000001
vn 0.355274 -0.934762 -0.000001
vn 0.355274 -0.934762 0.000001
vn 0.355274 -0.934762 -0.000001
s 1
g Shoulder_L pPipe37
usemtl lambert15SG
f 47/80/185 48/81/186 50/83/187
f 50/83/187 48/81/186 49/82/188
s 2
f 51/84/189 52/85/190 54/87/191
f 54/87/191 52/85/190 53/86/192
s 3
f 55/88/193 56/89/194 50/91/195
f 50/91/195 56/89/194 47/90/196
s 4
f 53/86/197 48/81/198 58/93/199
f 58/93/199 48/81/198 57/92/200
s 5
f 59/94/201 60/95/202 62/97/203
f 62/97/203 60/95/202 61/96/204
s 6
f 56/98/205 57/92/206 47/80/207
f 47/80/207 57/92/206 48/81/208
s 7
f 54/87/209 53/86/210 60/95/211
f 60/95/211 53/86/210 58/93/212
s 8
f 63/99/213 51/84/214 64/100/215
f 64/100/215 51/84/214 54/87/216
s 9
f 65/101/217 62/97/218 66/103/219
f 66/103/219 62/97/218 63/102/220
s 10
f 64/100/221 54/87/222 59/94/223
f 59/94/223 54/87/222 60/95/224
s 11
f 67/104/225 59/94/226 65/101/227
f 65/101/227 59/94/226 62/97/228
s 12
f 66/105/229 63/99/230 68/106/231
f 68/106/231 63/99/230 64/100/232
s 13
f 69/107/233 65/101/234 70/108/235
f 70/108/235 65/101/234 66/103/236
s 14
f 68/106/237 64/100/238 67/104/239
f 67/104/239 64/100/238 59/94/240
s 15
f 70/109/241 66/105/242 71/110/243
f 71/110/243 66/105/242 68/106/244
s 16
f 72/111/245 67/104/246 69/107/247
f 69/107/247 67/104/246 65/101/248
s 17
f 71/112/249 72/113/250 70/115/251
f 70/115/251 72/113/250 69/114/252
s 18
f 71/110/253 68/106/254 72/111/255
f 72/111/255 68/106/254 67/104/256
s 19
f 62/97/257 61/96/258 63/102/259
f 63/102/259 61/96/258 51/116/260
s 20
f 60/95/261 58/93/262 61/96/263
f 61/96/263 58/93/262 73/117/264
s 21
f 55/118/265 74/119/266 56/98/267
f 56/98/267 74/119/266 57/92/268
s 22
f 52/85/269 49/82/270 53/86/271
f 53/86/271 49/82/270 48/81/272
s 23
f 58/93/273 57/92/274 73/117/275
f 73/117/275 57/92/274 74/119/276
s 24
f 61/96/277 73/117/278 51/116/279
f 51/116/279 73/117/278 52/120/280
s 25
f 50/121/281 49/122/282 55/118/283
f 55/118/283 49/122/282 74/119/284
s 26
f 73/117/285 74/119/286 52/120/287
f 52/120/287 74/119/286 49/122/288
