# This file uses centimeters as units for non-parametric coordinates.

mtllib Sword.mtl
g default
v 0.081861 -0.089882 -0.686319
v -0.062744 -0.089882 -0.686319
v -0.135046 -0.358113 -0.554494
v -0.062744 -0.626343 -0.422670
v 0.081861 -0.626343 -0.422670
v 0.154163 -0.358113 -0.554494
v 0.081861 0.034211 -0.472715
v -0.062744 0.034211 -0.472715
v -0.135046 -0.234019 -0.340890
v -0.062744 -0.502250 -0.209066
v 0.081861 -0.502250 -0.209066
v 0.154163 -0.234019 -0.340890
v 0.009558 -0.358113 -0.554494
v 0.009558 -0.234019 -0.340890
vt 0.578125 0.020934
vt 0.421875 0.020934
vt 0.343750 0.156250
vt 0.421875 0.291566
vt 0.578125 0.291566
vt 0.656250 0.156250
vt 0.375000 0.312500
vt 0.416667 0.312500
vt 0.458333 0.312500
vt 0.500000 0.312500
vt 0.541667 0.312500
vt 0.583333 0.312500
vt 0.625000 0.312500
vt 0.375000 0.688440
vt 0.416667 0.688440
vt 0.458333 0.688440
vt 0.500000 0.688440
vt 0.541667 0.688440
vt 0.583333 0.688440
vt 0.625000 0.688440
vt 0.578125 0.708434
vt 0.421875 0.708434
vt 0.343750 0.843750
vt 0.421875 0.979066
vt 0.578125 0.979066
vt 0.656250 0.843750
vt 0.500000 0.150000
vt 0.500000 0.837500
vn 0.000001 0.864674 -0.502334
vn 0.000000 0.864674 -0.502334
vn 0.000000 0.864674 -0.502334
vn 0.000000 0.864674 -0.502334
vn -0.971833 0.203779 -0.118386
vn -0.971833 0.203779 -0.118386
vn -0.971833 0.203779 -0.118386
vn -0.971833 0.203779 -0.118386
vn -0.971833 -0.203779 0.118386
vn -0.971833 -0.203779 0.118386
vn -0.971833 -0.203779 0.118386
vn -0.971833 -0.203779 0.118386
vn -0.000000 -0.864674 0.502334
vn -0.000000 -0.864674 0.502334
vn -0.000000 -0.864674 0.502334
vn 0.000000 -0.864674 0.502334
vn 0.971833 -0.203779 0.118386
vn 0.971833 -0.203779 0.118386
vn 0.971833 -0.203779 0.118386
vn 0.971833 -0.203779 0.118386
vn 0.971833 0.203779 -0.118386
vn 0.971833 0.203779 -0.118386
vn 0.971833 0.203779 -0.118386
vn 0.971833 0.203779 -0.118386
vn 0.000000 -0.441071 -0.897472
vn 0.000000 -0.441071 -0.897472
vn 0.000000 -0.441071 -0.897472
vn 0.000000 -0.441071 -0.897472
vn 0.000000 -0.441071 -0.897472
vn 0.000000 -0.441071 -0.897472
vn 0.000000 -0.441071 -0.897472
vn 0.000000 -0.441071 -0.897472
vn 0.000000 -0.441071 -0.897472
vn 0.000000 -0.441071 -0.897472
vn 0.000000 -0.441071 -0.897472
vn 0.000000 -0.441071 -0.897472
vn 0.000000 -0.441071 -0.897472
vn 0.000000 -0.441071 -0.897472
vn 0.000000 -0.441071 -0.897472
vn 0.000000 -0.441071 -0.897472
vn 0.000000 -0.441071 -0.897472
vn 0.000000 -0.441071 -0.897472
vn 0.000000 0.441071 0.897472
vn 0.000000 0.441071 0.897472
vn 0.000000 0.441071 0.897472
vn 0.000000 0.441071 0.897472
vn 0.000000 0.441071 0.897472
vn 0.000000 0.441071 0.897472
vn 0.000000 0.441071 0.897472
vn 0.000000 0.441071 0.897472
vn 0.000000 0.441071 0.897472
vn 0.000000 0.441071 0.897472
vn 0.000000 0.441071 0.897472
vn 0.000000 0.441071 0.897472
vn 0.000000 0.441071 0.897472
vn 0.000000 0.441071 0.897472
vn 0.000000 0.441071 0.897472
vn 0.000000 0.441071 0.897472
vn 0.000000 0.441071 0.897472
vn 0.000000 0.441071 0.897472
s 1
g pCylinder36 group4
usemtl lambert3SG
f 1/7/1 2/8/2 7/14/3
f 7/14/3 2/8/2 8/15/4
s 2
f 2/8/5 3/9/6 8/15/7
f 8/15/7 3/9/6 9/16/8
s 3
f 3/9/9 4/10/10 9/16/11
f 9/16/11 4/10/10 10/17/12
s 4
f 4/10/13 5/11/14 10/17/15
f 10/17/15 5/11/14 11/18/16
s 5
f 5/11/17 6/12/18 11/18/19
f 11/18/19 6/12/18 12/19/20
s 6
f 6/12/21 1/13/22 12/19/23
f 12/19/23 1/13/22 7/20/24
s off
f 2/2/25 1/1/26 13/27/27
f 3/3/28 2/2/29 13/27/30
f 4/4/31 3/3/32 13/27/33
f 5/5/34 4/4/35 13/27/36
f 6/6/37 5/5/38 13/27/39
f 1/1/40 6/6/41 13/27/42
f 7/25/43 8/24/44 14/28/45
f 8/24/46 9/23/47 14/28/48
f 9/23/49 10/22/50 14/28/51
f 10/22/52 11/21/53 14/28/54
f 11/21/55 12/26/56 14/28/57
f 12/26/58 7/25/59 14/28/60
g default
v 0.106901 -0.099304 -0.449754
v 0.009558 -0.035543 -0.481090
v -0.087784 -0.099304 -0.449754
v -0.128105 -0.253237 -0.374102
v -0.087784 -0.407170 -0.298450
v 0.009558 -0.470932 -0.267114
v 0.106901 -0.407170 -0.298450
v 0.147222 -0.253237 -0.374102
v 0.106901 0.446863 0.490371
v 0.009558 0.510624 0.459035
v -0.087784 0.446863 0.490371
v -0.128105 0.292930 0.566023
v -0.087784 0.138997 0.641675
v 0.009558 0.075236 0.673011
v 0.106901 0.138997 0.641675
v 0.147222 0.292930 0.566023
v 0.009558 -0.253237 -0.374102
v 0.009558 0.292930 0.566023
vt 0.610485 0.045765
vt 0.500000 0.000000
vt 0.389515 0.045765
vt 0.343750 0.156250
vt 0.389515 0.266735
vt 0.500000 0.312500
vt 0.610485 0.266735
vt 0.656250 0.156250
vt 0.375000 0.312500
vt 0.406250 0.312500
vt 0.437500 0.312500
vt 0.468750 0.312500
vt 0.500000 0.312500
vt 0.531250 0.312500
vt 0.562500 0.312500
vt 0.593750 0.312500
vt 0.625000 0.312500
vt 0.375000 0.688440
vt 0.406250 0.688440
vt 0.437500 0.688440
vt 0.468750 0.688440
vt 0.500000 0.688440
vt 0.531250 0.688440
vt 0.562500 0.688440
vt 0.593750 0.688440
vt 0.625000 0.688440
vt 0.610485 0.733265
vt 0.500000 0.687500
vt 0.389515 0.733265
vt 0.343750 0.843750
vt 0.389515 0.954235
vt 0.500000 1.000000
vt 0.610485 0.954235
vt 0.656250 0.843750
vt 0.500000 0.150000
vt 0.500000 0.837500
vn 0.588600 0.699023 -0.406099
vn 0.588600 0.699023 -0.406099
vn 0.588600 0.699023 -0.406099
vn 0.588600 0.699023 -0.406099
vn -0.588600 0.699023 -0.406099
vn -0.588600 0.699023 -0.406099
vn -0.588600 0.699023 -0.406099
vn -0.588600 0.699023 -0.406099
vn -0.973340 0.198328 -0.115219
vn -0.973340 0.198328 -0.115219
vn -0.973340 0.198328 -0.115219
vn -0.973340 0.198328 -0.115219
vn -0.973340 -0.198328 0.115219
vn -0.973340 -0.198328 0.115219
vn -0.973340 -0.198328 0.115219
vn -0.973340 -0.198328 0.115219
vn -0.588600 -0.699023 0.406099
vn -0.588600 -0.699023 0.406099
vn -0.588601 -0.699023 0.406099
vn -0.588601 -0.699023 0.406099
vn 0.588600 -0.699023 0.406099
vn 0.588600 -0.699023 0.406099
vn 0.588600 -0.699023 0.406099
vn 0.588600 -0.699023 0.406099
vn 0.973340 -0.198328 0.115219
vn 0.973340 -0.198328 0.115219
vn 0.973340 -0.198328 0.115219
vn 0.973340 -0.198328 0.115219
vn 0.973340 0.198328 -0.115219
vn 0.973340 0.198328 -0.115219
vn 0.973340 0.198328 -0.115219
vn 0.973340 0.198328 -0.115219
vn 0.000000 -0.441071 -0.897472
vn 0.000000 -0.441071 -0.897472
vn 0.000000 -0.441071 -0.897472
vn 0.000000 -0.441071 -0.897472
vn 0.000000 -0.441071 -0.897472
vn 0.000000 -0.441071 -0.897472
vn 0.000000 -0.441071 -0.897472
vn 0.000000 -0.441071 -0.897472
vn 0.000000 -0.441071 -0.897472
vn 0.000000 -0.441071 -0.897472
vn 0.000000 -0.441071 -0.897472
vn 0.000000 -0.441071 -0.897472
vn 0.000000 -0.441071 -0.897472
vn 0.000000 -0.441071 -0.897472
vn 0.000000 -0.441071 -0.897472
vn 0.000000 -0.441071 -0.897472
vn 0.000000 -0.441071 -0.897472
vn 0.000000 -0.441071 -0.897472
vn 0.000000 -0.441071 -0.897472
vn 0.000000 -0.441071 -0.897472
vn 0.000000 -0.441071 -0.897472
vn 0.000000 -0.441071 -0.897472
vn 0.000000 -0.441071 -0.897472
vn 0.000000 -0.441071 -0.897472
vn 0.000000 0.441071 0.897472
vn 0.000000 0.441071 0.897472
vn 0.000000 0.441071 0.897472
vn 0.000000 0.441071 0.897472
vn 0.000000 0.441071 0.897472
vn 0.000000 0.441071 0.897472
vn 0.000000 0.441071 0.897472
vn 0.000000 0.441071 0.897472
vn 0.000000 0.441071 0.897472
vn 0.000000 0.441071 0.897472
vn 0.000000 0.441071 0.897472
vn 0.000000 0.441071 0.897472
vn 0.000000 0.441071 0.897472
vn 0.000000 0.441071 0.897472
vn 0.000000 0.441071 0.897472
vn 0.000000 0.441071 0.897472
vn 0.000000 0.441071 0.897472
vn 0.000000 0.441071 0.897472
vn 0.000000 0.441071 0.897472
vn 0.000000 0.441071 0.897472
vn 0.000000 0.441071 0.897472
vn 0.000000 0.441071 0.897472
vn 0.000000 0.441071 0.897472
vn 0.000000 0.441071 0.897472
s 1
g group4 pCylinder35
usemtl lambert6SG
f 15/37/61 16/38/62 23/46/63
f 23/46/63 16/38/62 24/47/64
s 2
f 16/38/65 17/39/66 24/47/67
f 24/47/67 17/39/66 25/48/68
s 3
f 17/39/69 18/40/70 25/48/71
f 25/48/71 18/40/70 26/49/72
s 4
f 18/40/73 19/41/74 26/49/75
f 26/49/75 19/41/74 27/50/76
s 5
f 19/41/77 20/42/78 27/50/79
f 27/50/79 20/42/78 28/51/80
s 6
f 20/42/81 21/43/82 28/51/83
f 28/51/83 21/43/82 29/52/84
s 7
f 21/43/85 22/44/86 29/52/87
f 29/52/87 22/44/86 30/53/88
s 8
f 22/44/89 15/45/90 30/53/91
f 30/53/91 15/45/90 23/54/92
s off
f 16/30/93 15/29/94 31/63/95
f 17/31/96 16/30/97 31/63/98
f 18/32/99 17/31/100 31/63/101
f 19/33/102 18/32/103 31/63/104
f 20/34/105 19/33/106 31/63/107
f 21/35/108 20/34/109 31/63/110
f 22/36/111 21/35/112 31/63/113
f 15/29/114 22/36/115 31/63/116
f 23/61/117 24/60/118 32/64/119
f 24/60/120 25/59/121 32/64/122
f 25/59/123 26/58/124 32/64/125
f 26/58/126 27/57/127 32/64/128
f 27/57/129 28/56/130 32/64/131
f 28/56/132 29/55/133 32/64/134
f 29/55/135 30/62/136 32/64/137
f 30/62/138 23/61/139 32/64/140
g default
v 0.137099 0.877783 0.168632
v -0.117982 0.877783 0.168632
v -0.245523 0.243065 0.480570
v -0.117982 -0.391653 0.792508
v 0.137099 -0.391653 0.792508
v 0.264640 0.243065 0.480570
v 0.137099 1.001876 0.382235
v -0.117982 1.001876 0.382235
v -0.245523 0.367158 0.694174
v -0.117982 -0.267560 1.006112
v 0.137099 -0.267560 1.006112
v 0.264640 0.367158 0.694174
v 0.009558 0.243065 0.480570
v 0.009558 0.367158 0.694174
vt 0.578125 0.020934
vt 0.421875 0.020934
vt 0.343750 0.156250
vt 0.421875 0.291566
vt 0.578125 0.291566
vt 0.656250 0.156250
vt 0.375000 0.312500
vt 0.416667 0.312500
vt 0.458333 0.312500
vt 0.500000 0.312500
vt 0.541667 0.312500
vt 0.583333 0.312500
vt 0.625000 0.312500
vt 0.375000 0.688440
vt 0.416667 0.688440
vt 0.458333 0.688440
vt 0.500000 0.688440
vt 0.541667 0.688440
vt 0.583333 0.688440
vt 0.625000 0.688440
vt 0.578125 0.708434
vt 0.421875 0.708434
vt 0.343750 0.843750
vt 0.421875 0.979066
vt 0.578125 0.979066
vt 0.656250 0.843750
vt 0.500000 0.150000
vt 0.500000 0.837500
vn 0.000001 0.864674 -0.502334
vn 0.000001 0.864674 -0.502334
vn 0.000000 0.864674 -0.502334
vn 0.000000 0.864674 -0.502334
vn -0.984050 0.153819 -0.089361
vn -0.984050 0.153819 -0.089361
vn -0.984050 0.153819 -0.089361
vn -0.984050 0.153819 -0.089361
vn -0.984050 -0.153818 0.089361
vn -0.984050 -0.153818 0.089361
vn -0.984050 -0.153818 0.089361
vn -0.984050 -0.153818 0.089361
vn -0.000000 -0.864674 0.502334
vn -0.000000 -0.864674 0.502334
vn -0.000000 -0.864674 0.502334
vn 0.000000 -0.864674 0.502334
vn 0.984050 -0.153819 0.089361
vn 0.984050 -0.153819 0.089361
vn 0.984050 -0.153819 0.089361
vn 0.984050 -0.153819 0.089361
vn 0.984050 0.153818 -0.089361
vn 0.984050 0.153818 -0.089361
vn 0.984050 0.153818 -0.089361
vn 0.984050 0.153818 -0.089361
vn 0.000000 -0.441071 -0.897472
vn 0.000000 -0.441071 -0.897472
vn 0.000000 -0.441071 -0.897472
vn 0.000000 -0.441071 -0.897472
vn 0.000000 -0.441071 -0.897472
vn 0.000000 -0.441071 -0.897472
vn 0.000000 -0.441071 -0.897472
vn 0.000000 -0.441071 -0.897472
vn 0.000000 -0.441071 -0.897472
vn 0.000000 -0.441071 -0.897472
vn 0.000000 -0.441071 -0.897472
vn 0.000000 -0.441071 -0.897472
vn 0.000000 -0.441071 -0.897472
vn 0.000000 -0.441071 -0.897472
vn 0.000000 -0.441071 -0.897472
vn 0.000000 -0.441071 -0.897472
vn 0.000000 -0.441071 -0.897472
vn 0.000000 -0.441071 -0.897472
vn 0.000000 0.441071 0.897472
vn 0.000000 0.441071 0.897472
vn 0.000000 0.441071 0.897472
vn 0.000000 0.441071 0.897472
vn 0.000000 0.441071 0.897472
vn 0.000000 0.441071 0.897472
vn 0.000000 0.441071 0.897472
vn 0.000000 0.441071 0.897472
vn 0.000000 0.441071 0.897472
vn 0.000000 0.441071 0.897472
vn 0.000000 0.441071 0.897472
vn 0.000000 0.441071 0.897472
vn 0.000000 0.441071 0.897472
vn 0.000000 0.441071 0.897472
vn 0.000000 0.441071 0.897472
vn 0.000000 0.441071 0.897472
vn 0.000000 0.441071 0.897472
vn 0.000000 0.441071 0.897472
s 1
g group4 pCylinder34
usemtl lambert11SG
f 33/71/141 34/72/142 39/78/143
f 39/78/143 34/72/142 40/79/144
s 2
f 34/72/145 35/73/146 40/79/147
f 40/79/147 35/73/146 41/80/148
s 3
f 35/73/149 36/74/150 41/80/151
f 41/80/151 36/74/150 42/81/152
s 4
f 36/74/153 37/75/154 42/81/155
f 42/81/155 37/75/154 43/82/156
s 5
f 37/75/157 38/76/158 43/82/159
f 43/82/159 38/76/158 44/83/160
s 6
f 38/76/161 33/77/162 44/83/163
f 44/83/163 33/77/162 39/84/164
s off
f 34/66/165 33/65/166 45/91/167
f 35/67/168 34/66/169 45/91/170
f 36/68/171 35/67/172 45/91/173
f 37/69/174 36/68/175 45/91/176
f 38/70/177 37/69/178 45/91/179
f 33/65/180 38/70/181 45/91/182
f 39/89/183 40/88/184 46/92/185
f 40/88/186 41/87/187 46/92/188
f 41/87/189 42/86/190 46/92/191
f 42/86/192 43/85/193 46/92/194
f 43/85/195 44/90/196 46/92/197
f 44/90/198 39/89/199 46/92/200
g default
v 0.009558 -0.056865 0.873167
v 0.009559 -0.056865 0.873167
v 0.009558 1.517714 3.166955
v 0.009559 1.517714 3.166955
v 0.009558 1.962688 2.948269
v 0.009559 1.962688 2.948269
v 0.009558 0.764611 0.469445
v 0.009559 0.764611 0.469445
v 0.009558 2.014664 3.530049
v -0.079514 0.353873 0.671306
v 0.098631 0.353873 0.671306
v 0.009559 2.014664 3.530049
v -0.030280 0.600316 0.550189
v 0.009558 2.020432 3.159164
v 0.009559 2.020432 3.159164
v 0.049397 0.600316 0.550189
v 0.009558 1.689967 3.333087
v -0.030280 0.127967 0.782330
v 0.049397 0.127967 0.782330
v 0.009559 1.689967 3.333087
v 0.009558 1.514021 3.169063
v -0.030280 1.588798 3.060588
v -0.079514 1.667971 2.933282
v -0.030280 1.838837 2.945381
v 0.009558 1.966646 2.946616
v 0.009559 1.966646 2.946616
v 0.049397 1.838837 2.945381
v 0.098631 1.667971 2.933282
v 0.049397 1.588798 3.060588
v 0.009559 1.514021 3.169063
vt 0.375000 0.000000
vt 0.625000 0.000000
vt 0.375000 0.250000
vt 0.625000 0.250000
vt 0.375000 0.500000
vt 0.625000 0.500000
vt 0.375000 0.750000
vt 0.625000 0.750000
vt 0.375000 1.000000
vt 0.625000 1.000000
vt 0.875000 0.000000
vt 0.875000 0.250000
vt 0.125000 0.000000
vt 0.125000 0.250000
vt 0.250000 0.250000
vt 0.375000 0.375000
vt 0.250000 0.000000
vt 0.375000 0.875000
vt 0.625000 0.875000
vt 0.750000 0.000000
vt 0.625000 0.375000
vt 0.750000 0.250000
vt 0.175000 0.000000
vt 0.375000 0.800000
vt 0.175000 0.250000
vt 0.375000 0.450000
vt 0.625000 0.450000
vt 0.825000 0.250000
vt 0.625000 0.800000
vt 0.825000 0.000000
vt 0.318750 0.250000
vt 0.375000 0.306250
vt 0.318750 0.000000
vt 0.375000 0.943750
vt 0.625000 0.943750
vt 0.681250 0.000000
vt 0.625000 0.306250
vt 0.681250 0.250000
vt 0.375000 0.212500
vt 0.318750 0.212500
vt 0.250000 0.212500
vt 0.175000 0.212500
vt 0.125000 0.212500
vt 0.375000 0.537500
vt 0.625000 0.537500
vt 0.875000 0.212500
vt 0.825000 0.212500
vt 0.750000 0.212500
vt 0.681250 0.212500
vt 0.625000 0.212500
vn 0.000000 -0.825306 0.564686
vn 0.000000 -0.825306 0.564686
vn 0.000000 -0.825306 0.564686
vn 0.000000 -0.825306 0.564686
vn 0.000000 -0.694205 0.719778
vn 0.000000 -0.694205 0.719778
vn 0.000000 -0.694205 0.719778
vn 0.000000 -0.694205 0.719778
vn 0.000000 0.899674 -0.436562
vn 0.000000 0.899674 -0.436562
vn 0.000000 0.899674 -0.436562
vn 0.000000 0.899674 -0.436562
vn 0.000000 -0.441071 -0.897472
vn 0.000000 -0.441071 -0.897472
vn 0.000000 -0.441071 -0.897472
vn 0.000000 -0.441071 -0.897472
vn 0.981432 -0.158300 0.108311
vn 0.979044 -0.168587 0.114246
vn 0.960681 -0.232839 0.151252
vn 0.950227 -0.262274 0.168171
vn -0.950227 -0.262274 0.168171
vn -0.979044 -0.168587 0.114246
vn -0.960681 -0.232839 0.151252
vn -0.981432 -0.158300 0.108311
vn -0.977131 0.191307 -0.092831
vn -0.974423 0.201806 -0.098862
vn -0.953511 0.268344 -0.137146
vn -0.943072 0.295429 -0.152762
vn 0.000000 -0.441071 -0.897472
vn 0.000000 -0.441071 -0.897472
vn 0.000000 -0.441071 -0.897472
vn 0.000000 -0.441071 -0.897472
vn 0.943072 0.295429 -0.152762
vn 0.974423 0.201806 -0.098862
vn 0.953511 0.268344 -0.137146
vn 0.977131 0.191307 -0.092831
vn 0.000000 0.964500 -0.264084
vn 0.000000 0.964500 -0.264084
vn 0.000000 0.964500 -0.264084
vn 0.000000 0.964500 -0.264084
vn -0.944580 0.283855 -0.164906
vn -0.963378 0.233589 -0.131676
vn -0.981007 0.171450 -0.090717
vn -0.984297 0.156797 -0.081078
vn 0.000000 0.999879 0.015548
vn 0.000000 0.999879 0.015548
vn 0.000000 0.999879 0.015548
vn 0.000000 0.999879 0.015548
vn 0.944580 0.283855 -0.164906
vn 0.981007 0.171450 -0.090717
vn 0.963378 0.233589 -0.131676
vn 0.984297 0.156797 -0.081078
vn 0.000000 -0.441072 -0.897472
vn 0.000000 -0.441071 -0.897472
vn 0.000000 -0.441072 -0.897472
vn 0.000000 -0.441071 -0.897472
vn -0.939769 -0.287739 0.184500
vn -0.956575 -0.246926 0.154894
vn -0.977157 -0.182751 0.108476
vn -0.981315 -0.166369 0.096653
vn 0.000000 -0.441072 -0.897472
vn 0.000000 -0.441071 -0.897472
vn 0.000000 -0.441072 -0.897472
vn 0.000000 -0.441071 -0.897472
vn 0.937300 -0.301359 0.175075
vn 0.957051 -0.249037 0.148439
vn 0.977429 -0.178788 0.112550
vn 0.981168 -0.162599 0.104259
vn 0.000000 -0.518640 0.854993
vn 0.000000 -0.518640 0.854993
vn 0.000000 -0.518639 0.854993
vn 0.000000 -0.518640 0.854993
vn -0.820325 0.283493 0.496687
vn -0.953800 -0.202692 0.221767
vn -0.953425 -0.209258 0.217239
vn -0.953415 -0.209414 0.217131
vn -0.949734 -0.187509 0.250689
vn -0.956164 -0.171895 0.237070
vn -0.965229 -0.147568 0.215772
vn -0.976503 -0.111771 0.184255
vn -0.977566 0.210603 0.003274
vn -0.964424 0.264006 -0.013682
vn -0.969643 0.244413 -0.007434
vn -0.960402 0.278024 -0.018172
vn -0.784382 0.238953 0.572404
vn -0.948048 0.306900 -0.083766
vn -0.948818 0.306930 -0.074416
vn -0.948026 0.306899 -0.084028
vn 0.000000 0.385254 0.922811
vn 0.000000 0.385254 0.922811
vn 0.000000 0.385242 0.922816
vn 0.000000 0.385242 0.922816
vn 0.784381 0.238929 0.572415
vn 0.948819 0.306929 -0.074416
vn 0.948048 0.306900 -0.083766
vn 0.948025 0.306899 -0.084028
vn 0.960402 0.278024 -0.018172
vn 0.964424 0.264006 -0.013682
vn 0.969643 0.244413 -0.007434
vn 0.977566 0.210603 0.003274
vn 0.976503 -0.111771 0.184255
vn 0.956164 -0.171895 0.237070
vn 0.965229 -0.147568 0.215772
vn 0.949734 -0.187509 0.250689
vn 0.820325 0.283504 0.496682
vn 0.953425 -0.209258 0.217239
vn 0.953800 -0.202692 0.221767
vn 0.953415 -0.209414 0.217131
vn 0.000000 0.495701 0.868493
vn 0.000000 0.495701 0.868493
vn 0.000000 0.495690 0.868500
vn 0.000000 0.495690 0.868500
s 1
g group4 pCube31
usemtl lambert4SG
f 47/93/201 48/94/202 67/131/203
f 67/131/203 48/94/202 76/142/204
s 2
f 49/95/205 50/96/206 63/124/207
f 63/124/207 50/96/206 66/129/208
s 3
f 71/136/209 72/137/210 53/99/211
f 53/99/211 72/137/210 54/100/212
s 4
f 64/126/213 65/127/214 47/101/215
f 65/127/214 48/102/216 47/101/215
s 5
f 48/94/217 65/128/218 76/142/219
f 76/142/219 65/128/218 75/141/220
s 6
f 68/132/221 64/125/222 67/131/223
f 67/131/223 64/125/222 47/93/224
s 7
f 53/105/225 59/115/226 71/135/227
f 71/135/227 59/115/226 70/134/228
s 8
f 62/121/229 59/116/230 54/100/231
f 53/99/232 54/100/231 59/116/230
s 9
f 73/139/233 62/122/234 72/138/235
f 72/138/235 62/122/234 54/103/236
s 10
f 60/118/237 61/119/238 51/97/239
f 51/97/239 61/119/238 52/98/240
s 11
f 69/133/241 70/134/242 56/109/243
f 56/109/243 70/134/242 59/115/244
s 12
f 55/108/245 58/113/246 60/118/247
f 60/118/247 58/113/246 61/119/248
s 13
f 74/140/249 57/112/250 73/139/251
f 73/139/251 57/112/250 62/122/252
s 14
f 59/116/253 62/121/254 56/110/255
f 56/110/255 62/121/254 57/111/256
s 15
f 68/132/257 69/133/258 64/125/259
f 64/125/259 69/133/258 56/109/260
s 16
f 56/110/261 57/111/262 64/126/263
f 64/126/263 57/111/262 65/127/264
s 17
f 74/140/265 75/141/266 57/112/267
f 57/112/267 75/141/266 65/128/268
s 18
f 63/124/269 66/129/270 55/108/271
f 55/108/271 66/129/270 58/113/272
s 19
f 67/131/273 49/95/274 68/132/275
f 63/123/276 68/132/275 49/95/274
s 20
f 69/133/277 68/132/278 55/107/279
f 55/107/279 68/132/278 63/123/280
s 21
f 60/117/281 70/134/282 55/107/283
f 55/107/283 70/134/282 69/133/284
s 22
f 71/135/285 70/134/286 51/106/287
f 70/134/286 60/117/288 51/106/287
s 23
f 51/97/289 52/98/290 71/136/291
f 71/136/291 52/98/290 72/137/292
s 24
f 72/138/293 52/104/294 73/139/295
f 61/120/296 73/139/295 52/104/294
s 25
f 74/140/297 73/139/298 58/114/299
f 58/114/299 73/139/298 61/120/300
s 26
f 66/130/301 75/141/302 58/114/303
f 58/114/303 75/141/302 74/140/304
s 27
f 76/142/305 75/141/306 50/96/307
f 75/141/306 66/130/308 50/96/307
s 28
f 67/131/309 76/142/310 49/95/311
f 49/95/311 76/142/310 50/96/312
