# This file uses centimeters as units for non-parametric coordinates.

mtllib UpperArm_R.mtl
g default
v -0.179547 -1.404644 -0.625629
v -0.265608 -1.321027 -0.761505
v -0.397628 -1.254096 -0.811239
v -0.540231 -1.221786 -0.761505
v -0.655207 -1.232755 -0.625629
v -0.711749 -1.284062 -0.440018
v -0.694706 -1.361961 -0.254407
v -0.608645 -1.445578 -0.118531
v -0.476626 -1.512509 -0.068797
v -0.334022 -1.544819 -0.118531
v -0.219046 -1.533850 -0.254407
v -0.162504 -1.482543 -0.440018
v 0.302613 0.002161 -0.200883
v 0.199576 0.102272 -0.363562
v 0.041515 0.182405 -0.423106
v -0.129217 0.221088 -0.363562
v -0.266873 0.207956 -0.200883
v -0.334568 0.146528 0.021340
v -0.314163 0.053263 0.243563
v -0.211126 -0.046848 0.406242
v -0.053065 -0.126981 0.465786
v 0.117667 -0.165664 0.406242
v 0.255323 -0.152532 0.243563
v 0.323018 -0.091104 0.021340
v -0.437127 -1.383302 -0.440018
v -0.005775 0.027712 0.021340
v 0.041995 -0.850358 -0.479631
v 0.062400 -0.943623 -0.257407
v -0.005295 -1.005051 -0.035184
v -0.142951 -1.018183 0.127494
v -0.313683 -0.979500 0.187039
v -0.471744 -0.899367 0.127494
v -0.574781 -0.799256 -0.035184
v -0.595186 -0.705991 -0.257407
v -0.527491 -0.644563 -0.479631
v -0.389835 -0.631431 -0.642309
v -0.219103 -0.670114 -0.701854
v -0.061042 -0.750247 -0.642309
vt 0.635316 0.078125
vt 0.578125 0.020934
vt 0.500000 0.000000
vt 0.421875 0.020934
vt 0.364684 0.078125
vt 0.343750 0.156250
vt 0.364684 0.234375
vt 0.421875 0.291566
vt 0.500000 0.312500
vt 0.578125 0.291566
vt 0.635316 0.234375
vt 0.656250 0.156250
vt 0.375000 0.312500
vt 0.395833 0.312500
vt 0.416667 0.312500
vt 0.437500 0.312500
vt 0.458333 0.312500
vt 0.479167 0.312500
vt 0.500000 0.312500
vt 0.520833 0.312500
vt 0.541667 0.312500
vt 0.562500 0.312500
vt 0.583333 0.312500
vt 0.604167 0.312500
vt 0.625000 0.312500
vt 0.375000 0.688440
vt 0.395833 0.688440
vt 0.416667 0.688440
vt 0.437500 0.688440
vt 0.458333 0.688440
vt 0.479167 0.688440
vt 0.500000 0.688440
vt 0.520833 0.688440
vt 0.541667 0.688440
vt 0.562500 0.688440
vt 0.583333 0.688440
vt 0.604167 0.688440
vt 0.625000 0.688440
vt 0.635316 0.765625
vt 0.578125 0.708434
vt 0.500000 0.687500
vt 0.421875 0.708434
vt 0.364684 0.765625
vt 0.343750 0.843750
vt 0.364684 0.921875
vt 0.421875 0.979066
vt 0.500000 1.000000
vt 0.578125 0.979066
vt 0.635316 0.921875
vt 0.656250 0.843750
vt 0.500000 0.150000
vt 0.500000 0.837500
vt 0.625000 0.461301
vt 0.375000 0.461301
vt 0.604167 0.461301
vt 0.583333 0.461301
vt 0.562500 0.461301
vt 0.541667 0.461301
vt 0.520833 0.461301
vt 0.500000 0.461301
vt 0.479167 0.461301
vt 0.458333 0.461301
vt 0.437500 0.461301
vt 0.416667 0.461301
vt 0.395833 0.461301
vn 0.787443 -0.157787 -0.595850
vn 0.787443 -0.157787 -0.595850
vn 0.787443 -0.157787 -0.595850
vn 0.787443 -0.157787 -0.595850
vn 0.377444 0.057732 -0.924231
vn 0.377444 0.057732 -0.924231
vn 0.377444 0.057732 -0.924231
vn 0.377444 0.057732 -0.924231
vn -0.266260 0.255487 -0.929426
vn -0.266260 0.255487 -0.929426
vn -0.266260 0.255487 -0.929426
vn -0.266260 0.255487 -0.929426
vn -0.738146 0.309120 -0.599654
vn -0.738146 0.309120 -0.599654
vn -0.738146 0.309120 -0.599654
vn -0.738146 0.309120 -0.599654
vn -0.941787 0.258003 -0.215574
vn -0.941787 0.258003 -0.215574
vn -0.941787 0.258003 -0.215574
vn -0.941787 0.258003 -0.215574
vn -0.977061 0.148931 0.152220
vn -0.977061 0.148931 0.152220
vn -0.977061 0.148931 0.152220
vn -0.977061 0.148931 0.152220
vn -0.850938 -0.023086 0.524759
vn -0.850938 -0.023086 0.524759
vn -0.850938 -0.023086 0.524759
vn -0.850938 -0.023086 0.524759
vn -0.455684 -0.268108 0.848805
vn -0.455685 -0.268108 0.848805
vn -0.455685 -0.268108 0.848805
vn -0.455685 -0.268108 0.848805
vn 0.193090 -0.471926 0.860234
vn 0.193090 -0.471926 0.860234
vn 0.193090 -0.471926 0.860234
vn 0.193090 -0.471926 0.860234
vn 0.681450 -0.497848 0.536444
vn 0.681450 -0.497848 0.536444
vn 0.681450 -0.497848 0.536444
vn 0.681450 -0.497848 0.536444
vn 0.892114 -0.424614 0.154387
vn 0.892114 -0.424614 0.154387
vn 0.892114 -0.424614 0.154387
vn 0.892114 -0.424614 0.154387
vn 0.924912 -0.312737 -0.216179
vn 0.924912 -0.312737 -0.216179
vn 0.924912 -0.312737 -0.216179
vn 0.924912 -0.312737 -0.216179
vn -0.319412 -0.883892 -0.341631
vn -0.319412 -0.883892 -0.341631
vn -0.319412 -0.883892 -0.341631
vn -0.319412 -0.883892 -0.341631
vn -0.319412 -0.883892 -0.341631
vn -0.319412 -0.883892 -0.341631
vn -0.319412 -0.883892 -0.341631
vn -0.319412 -0.883892 -0.341631
vn -0.319412 -0.883892 -0.341631
vn -0.319412 -0.883892 -0.341631
vn -0.319412 -0.883892 -0.341631
vn -0.319412 -0.883892 -0.341631
vn -0.319412 -0.883892 -0.341631
vn -0.319412 -0.883892 -0.341631
vn -0.319412 -0.883892 -0.341631
vn -0.319412 -0.883892 -0.341631
vn -0.319412 -0.883892 -0.341631
vn -0.319412 -0.883892 -0.341631
vn -0.319412 -0.883892 -0.341631
vn -0.319412 -0.883892 -0.341631
vn -0.319412 -0.883892 -0.341631
vn -0.319412 -0.883892 -0.341631
vn -0.319412 -0.883892 -0.341631
vn -0.319412 -0.883892 -0.341631
vn -0.319412 -0.883892 -0.341631
vn -0.319412 -0.883892 -0.341631
vn -0.319412 -0.883892 -0.341631
vn -0.319412 -0.883892 -0.341631
vn -0.319412 -0.883892 -0.341631
vn -0.319412 -0.883892 -0.341631
vn -0.319412 -0.883892 -0.341631
vn -0.319412 -0.883892 -0.341631
vn -0.319412 -0.883892 -0.341631
vn -0.319412 -0.883892 -0.341631
vn -0.319412 -0.883892 -0.341631
vn -0.319412 -0.883892 -0.341631
vn 0.319412 0.883892 0.341631
vn 0.319412 0.883892 0.341631
vn 0.319412 0.883892 0.341631
vn 0.319412 0.883892 0.341631
vn 0.319412 0.883892 0.341631
vn 0.319412 0.883892 0.341631
vn 0.319412 0.883892 0.341631
vn 0.319412 0.883892 0.341631
vn 0.319412 0.883892 0.341631
vn 0.319412 0.883892 0.341631
vn 0.319412 0.883892 0.341631
vn 0.319412 0.883892 0.341631
vn 0.319412 0.883892 0.341631
vn 0.319412 0.883892 0.341631
vn 0.319412 0.883892 0.341631
vn 0.319412 0.883892 0.341631
vn 0.319412 0.883892 0.341631
vn 0.319412 0.883892 0.341631
vn 0.319412 0.883892 0.341631
vn 0.319412 0.883892 0.341631
vn 0.319412 0.883892 0.341631
vn 0.319412 0.883892 0.341631
vn 0.319412 0.883892 0.341631
vn 0.319412 0.883892 0.341631
vn 0.319412 0.883892 0.341631
vn 0.319412 0.883892 0.341631
vn 0.319412 0.883892 0.341631
vn 0.319412 0.883892 0.341631
vn 0.319412 0.883892 0.341631
vn 0.319412 0.883892 0.341631
vn 0.319412 0.883892 0.341631
vn 0.319412 0.883892 0.341631
vn 0.319412 0.883892 0.341631
vn 0.319412 0.883892 0.341631
vn 0.319412 0.883892 0.341631
vn 0.319412 0.883892 0.341631
vn 0.955100 -0.231531 -0.184870
vn 0.955100 -0.231531 -0.184870
vn 0.955100 -0.231531 -0.184870
vn 0.955100 -0.231531 -0.184870
vn 0.920995 -0.342343 0.185927
vn 0.920995 -0.342343 0.185927
vn 0.920995 -0.342343 0.185927
vn 0.920995 -0.342343 0.185927
vn 0.713820 -0.405024 0.571328
vn 0.713820 -0.405024 0.571328
vn 0.713820 -0.405024 0.571328
vn 0.713820 -0.405024 0.571328
vn 0.231586 -0.365564 0.901516
vn 0.231586 -0.365564 0.901516
vn 0.231586 -0.365564 0.901516
vn 0.231586 -0.365564 0.901516
vn -0.419393 -0.163746 0.892915
vn -0.419393 -0.163746 0.892915
vn -0.419393 -0.163746 0.892915
vn -0.419393 -0.163746 0.892915
vn -0.823539 0.067604 0.563216
vn -0.823540 0.067604 0.563216
vn -0.823540 0.067604 0.563216
vn -0.823540 0.067604 0.563216
vn -0.955100 0.231531 0.184870
vn -0.955100 0.231531 0.184870
vn -0.955100 0.231531 0.184870
vn -0.955100 0.231531 0.184870
vn -0.920995 0.342343 -0.185927
vn -0.920995 0.342343 -0.185927
vn -0.920995 0.342343 -0.185927
vn -0.920995 0.342343 -0.185927
vn -0.713820 0.405024 -0.571328
vn -0.713820 0.405024 -0.571328
vn -0.713820 0.405024 -0.571328
vn -0.713820 0.405024 -0.571328
vn -0.231586 0.365564 -0.901516
vn -0.231586 0.365564 -0.901516
vn -0.231586 0.365564 -0.901516
vn -0.231586 0.365564 -0.901516
vn 0.419393 0.163746 -0.892915
vn 0.419393 0.163746 -0.892915
vn 0.419393 0.163746 -0.892915
vn 0.419393 0.163746 -0.892915
vn 0.823539 -0.067604 -0.563216
vn 0.823540 -0.067604 -0.563216
vn 0.823540 -0.067604 -0.563216
vn 0.823540 -0.067604 -0.563216
s 1
g pCylinder50 UpperArm_R
usemtl lambert15SG
f 1/13/1 2/14/2 27/54/3
f 27/54/3 2/14/2 38/65/4
s 2
f 2/14/5 3/15/6 38/65/7
f 38/65/7 3/15/6 37/64/8
s 3
f 3/15/9 4/16/10 37/64/11
f 37/64/11 4/16/10 36/63/12
s 4
f 4/16/13 5/17/14 36/63/15
f 36/63/15 5/17/14 35/62/16
s 5
f 5/17/17 6/18/18 35/62/19
f 35/62/19 6/18/18 34/61/20
s 6
f 6/18/21 7/19/22 34/61/23
f 34/61/23 7/19/22 33/60/24
s 7
f 7/19/25 8/20/26 33/60/27
f 33/60/27 8/20/26 32/59/28
s 8
f 8/20/29 9/21/30 32/59/31
f 32/59/31 9/21/30 31/58/32
s 9
f 9/21/33 10/22/34 31/58/35
f 31/58/35 10/22/34 30/57/36
s 10
f 10/22/37 11/23/38 30/57/39
f 30/57/39 11/23/38 29/56/40
s 11
f 11/23/41 12/24/42 29/56/43
f 29/56/43 12/24/42 28/55/44
s 12
f 12/24/45 1/25/46 28/55/47
f 28/55/47 1/25/46 27/53/48
s off
f 2/2/49 1/1/50 25/51/51
f 3/3/52 2/2/53 25/51/54
f 4/4/55 3/3/56 25/51/57
f 5/5/58 4/4/59 25/51/60
f 6/6/61 5/5/62 25/51/63
f 7/7/64 6/6/65 25/51/66
f 8/8/67 7/7/68 25/51/69
f 9/9/70 8/8/71 25/51/72
f 10/10/73 9/9/74 25/51/75
f 11/11/76 10/10/77 25/51/78
f 12/12/79 11/11/80 25/51/81
f 1/1/82 12/12/83 25/51/84
f 13/49/85 14/48/86 26/52/87
f 14/48/88 15/47/89 26/52/90
f 15/47/91 16/46/92 26/52/93
f 16/46/94 17/45/95 26/52/96
f 17/45/97 18/44/98 26/52/99
f 18/44/100 19/43/101 26/52/102
f 19/43/103 20/42/104 26/52/105
f 20/42/106 21/41/107 26/52/108
f 21/41/109 22/40/110 26/52/111
f 22/40/112 23/39/113 26/52/114
f 23/39/115 24/50/116 26/52/117
f 24/50/118 13/49/119 26/52/120
s 13
f 28/55/121 27/53/122 24/37/123
f 24/37/123 27/53/122 13/38/124
s 14
f 29/56/125 28/55/126 23/36/127
f 23/36/127 28/55/126 24/37/128
s 15
f 30/57/129 29/56/130 22/35/131
f 22/35/131 29/56/130 23/36/132
s 16
f 31/58/133 30/57/134 21/34/135
f 21/34/135 30/57/134 22/35/136
s 17
f 32/59/137 31/58/138 20/33/139
f 20/33/139 31/58/138 21/34/140
s 18
f 33/60/141 32/59/142 19/32/143
f 19/32/143 32/59/142 20/33/144
s 19
f 34/61/145 33/60/146 18/31/147
f 18/31/147 33/60/146 19/32/148
s 20
f 35/62/149 34/61/150 17/30/151
f 17/30/151 34/61/150 18/31/152
s 21
f 36/63/153 35/62/154 16/29/155
f 16/29/155 35/62/154 17/30/156
s 22
f 37/64/157 36/63/158 15/28/159
f 15/28/159 36/63/158 16/29/160
s 23
f 38/65/161 37/64/162 14/27/163
f 14/27/163 37/64/162 15/28/164
s 24
f 27/54/165 38/65/166 13/26/167
f 13/26/167 38/65/166 14/27/168
